<?xml version="1.0" encoding="utf-8"?>
<!-- Generator: Adobe Illustrator 28.0.0, SVG Export Plug-In . SVG Version: 6.00 Build 0)  -->
<svg version="1.1" id="Vrstva_1" xmlns="http://www.w3.org/2000/svg" xmlns:xlink="http://www.w3.org/1999/xlink" x="0px" y="0px"
	 viewBox="0 0 384 382" style="enable-background:new 0 0 384 382;" xml:space="preserve">
<style type="text/css">
	.st0{fill:#09A2DD;}
</style>
<path class="st0" d="M15,335.1c-9.4,9.4-9.4,24.6,0,33.9c9.4,9.4,24.6,9.4,33.9,0L15,335.1z M209,209.1c9.4-9.4,9.4-24.6,0-33.9
	s-24.6-9.4-33.9,0L209,209.1z M175,175.1c-9.4,9.4-9.4,24.6,0,33.9s24.6,9.4,33.9,0L175,175.1z M369,49.1c9.4-9.4,9.4-24.6,0-33.9
	c-9.4-9.4-24.6-9.4-33.9,0L369,49.1z M209,175.1c-9.4-9.4-24.6-9.4-33.9,0s-9.4,24.6,0,33.9L209,175.1z M335,369.1
	c9.4,9.4,24.6,9.4,33.9,0s9.4-24.6,0-33.9L335,369.1z M175,209.1c9.4,9.4,24.6,9.4,33.9,0s9.4-24.6,0-33.9L175,209.1z M49,15.1
	c-9.4-9.4-24.6-9.4-33.9,0c-9.4,9.4-9.4,24.6,0,33.9L49,15.1z M49,369.1l160-160L175,175.1l-160,160L49,369.1z M209,209.1l160-160
	L335,15.1l-160,160L209,209.1z M175,209.1l160,160l33.9-33.9l-160-160L175,209.1z M209,175.1L49,15.1L15,49.1l160,160L209,175.1z"/>
</svg>
