<svg xmlns="http://www.w3.org/2000/svg" viewBox="0 0 70 70" id="1607577156" class="svg u_1607577156" data-icon-name="wp-doctor_thin"> <g> <path d="M58.5,48.3c-0.4-2.5-2-4.6-4.3-5.5l-11.3-4.5L42,35.8v-1.7l1.5-4.2c0.5-0.1,1.3-0.3,1.9-0.8c1.1-0.9,1.7-2.3,1.7-3.8
		c0-1.2-0.5-2-0.9-2.4c-0.4-0.3-0.8-0.6-1.1-0.7v-3.8c0-3.4-1.6-5.8-4.1-6.1c-1.3-2-4-2.3-5.9-2.3c-5.9,0-10,3.3-10,8v4.2
		c-0.4,0.1-0.8,0.3-1.1,0.7C23.5,23.3,23,24,23,25.3c0,1.6,0.6,2.9,1.7,3.8c0.6,0.5,1.3,0.7,1.9,0.8l1.5,4.2v1.7l-0.8,2.4l-11.3,4.5
		c-2.3,0.9-4,3-4.3,5.5L10,60h50L58.5,48.3z M28,28l-0.7,0c-0.2,0-0.9-0.1-1.3-0.4c-0.6-0.5-1-1.4-1-2.3c0-1,0.5-1.2,1-1.3l1,0v-6
		c0-3.5,3.3-6,8-6c3.2,0,4,1,4.4,1.7l0.3,0.6h0.6c2,0,2.7,2.1,2.7,4.1V24l1,0c0,0,0.4,0,0.7,0.3c0.2,0.2,0.3,0.5,0.3,1
		c0,1-0.3,1.8-1,2.3C43.6,27.9,43,28,42.8,28H42l-2,5.8v1.7l-5,3.8l-5-3.8v-1.7L28,28z M41,39L40,43l-3.3-2.5l3.8-2.9L41,39z
		 M36.6,43L35,44.6L33.4,43l1.6-1.2L36.6,43z M33.4,40.5L30,43.1l-1-4l0.5-1.4L33.4,40.5z M12.3,58l1.2-9.4c0.3-1.8,1.4-3.3,3.1-3.9
		l10.7-4.3L31.7,58H12.3z M30.6,45.2l1.2-0.9l1.8,1.8l-0.1,0.1l0,0c-0.6,0.7-1.3,1.9-1.8,3.7L30.6,45.2z M36.2,58h-2.4L33,54.9
		c0-4.1,1.2-6.4,2-7.4c0.8,1,2,3.3,2,7.4L36.2,58z M36.5,46.1L36.5,46.1L36.4,46l1.8-1.8l1.2,0.9l-1.2,4.7
		C37.8,48,37,46.8,36.5,46.1z M38.3,58l4.4-17.6l10.7,4.3c1.7,0.7,2.8,2.2,3.1,3.9l1.2,9.4H38.3z"></path> 
 <polygon points="50,47 48,47 48,50 45,50 45,52 48,52 48,55 50,55 50,52 53,52 53,50 50,50 	"></polygon> 
</g> 
</svg>