<svg xmlns="http://www.w3.org/2000/svg" viewBox="0 0 70 70" id="1696733970" class="svg u_1696733970" data-icon-name="wp-clip_board_thin"> <g> <rect x="32" y="28" width="14" height="2"></rect> 
 <rect x="32" y="34" width="14" height="2"></rect> 
 <rect x="32" y="40" width="14" height="2"></rect> 
 <rect x="24" y="28" width="4" height="2"></rect> 
 <rect x="24" y="34" width="4" height="2"></rect> 
 <rect x="24" y="40" width="4" height="2"></rect> 
 <path d="M39.9,14c-0.5-2.3-2.5-4-4.9-4s-4.4,1.7-4.9,4H14v46h42V14H39.9z M26,16h18v2c0,1.1-0.9,2-2,2H28c-1.1,0-2-0.9-2-2V16z
		 M35,12c1.3,0,2.4,0.8,2.8,2h-5.6C32.6,12.8,33.7,12,35,12z M16,16h8v2c0,2.2,1.8,4,4,4h14c2.2,0,4-1.8,4-4v-2h8v32H44v10H16V16z
		 M52.6,50L46,56.6V50H52.6z M47.4,58l6.6-6.6V58H47.4z"></path> 
</g> 
</svg>