<svg id="1226940734" data-name="Layer 1" xmlns="http://www.w3.org/2000/svg" viewBox="0 0 67 71" class="svg u_1226940734" data-icon-custom="true" data-icon-name="insured-licend.svg"> <title id="1692471612">insured-licendArtboard 1</title> 
 <path d="M8.71,39.09q0-14.25,0-28.51C8.71,9,8.79,9,10.28,9c3.21,0,6.43,0,9.64,0,.69,0,.91-.19.88-.88-.06-2-.3-2.22,2.18-2.18,1.19,0,2.38,0,3.56,0a1,1,0,0,0,1-.65,6.67,6.67,0,0,1,12.1,0,1,1,0,0,0,1.06.61c1.43,0,2.86,0,4.3,0,1.23,0,1.39.18,1.4,1.39a6.05,6.05,0,0,1,0,.84c-.08.65.2.82.83.82,3.28,0,6.57,0,9.85,0,1.25,0,1.41.16,1.41,1.37q0,28.82,0,57.64c0,1.21-.17,1.37-1.41,1.37h-47c-1.34,0-1.46-.13-1.46-1.53Q8.7,53.44,8.71,39.09Zm1.54.07c0,9.12,0,18.23,0,27.35,0,1,.16,1.37,1.29,1.36q22.11-.07,44.22,0c1,0,1.29-.25,1.28-1.27,0-6.57,0-13.13,0-19.7Q57,29.5,57,12.1c0-1.91.17-1.63-1.59-1.64-2,0-3.91,0-5.87,0-1,0-2.28-.45-2.92.21s-.15,1.87-.17,2.84c0,1.36-.13,1.48-1.52,1.48H21.87c-.74,0-1.09-.33-1.08-1.08s-.06-1.54,0-2.3-.16-1.21-1.13-1.19q-4.08.11-8.17,0c-1,0-1.29.24-1.29,1.26C10.26,20.85,10.24,30,10.24,39.15Zm23.3-25.69c3.49,0,7,0,10.47,0,.72,0,1-.19.94-.93-.06-1.43-.05-2.86,0-4.29,0-.66-.21-.83-.83-.81-1.36,0-2.72,0-4.08,0a1.3,1.3,0,0,1-1.46-1,5.25,5.25,0,0,0-9.95.06,1.24,1.24,0,0,1-1.39.95c-1.4,0-2.79,0-4.19,0-.59,0-.79.17-.77.77,0,1.43.06,2.86,0,4.29,0,.82.25,1,1,1C26.7,13.44,30.12,13.46,33.54,13.46Z" id="1162134712"></path> 
 <path d="M33.63,57.52H19.39a7.31,7.31,0,0,1-.94,0,.72.72,0,0,1,0-1.42,5.81,5.81,0,0,1,.84,0H47.95a6,6,0,0,1,.94,0,.63.63,0,0,1,.54.67.62.62,0,0,1-.52.69,5.3,5.3,0,0,1-.94.06Z" id="1064349704"></path> 
 <path d="M33.62,47.41H19.69c-.28,0-.56,0-.84,0-.51,0-1-.1-1-.77s.48-.77,1-.77h29c.61,0,1.53-.26,1.54.74s-.91.78-1.52.78C43.12,47.42,38.37,47.41,33.62,47.41Z" id="1834922596"></path> 
 <path d="M33.62,42.41H19.69c-.28,0-.56,0-.84,0-.51,0-1-.1-1-.77s.48-.77,1-.77h29c.61,0,1.53-.26,1.54.74s-.91.78-1.52.78C43.12,42.42,38.37,42.41,33.62,42.41Z" id="1627431082"></path> 
 <path d="M33.58,52.47H19.33a8.12,8.12,0,0,1-.84,0,.69.69,0,0,1-.68-.77.66.66,0,0,1,.65-.68c.28,0,.56,0,.84,0H47.9c.28,0,.56,0,.84,0a.66.66,0,0,1,.67.66.68.68,0,0,1-.65.79,6.64,6.64,0,0,1-.84,0Z" id="1155249068"></path> 
 <path d="M25.29,26.78a1.75,1.75,0,0,1,.84.44c1.45,1.09,2.94,2.13,4.34,3.28.66.54,1,.38,1.48-.19,3-3.44,6-6.84,8.94-10.26a7.51,7.51,0,0,1,.57-.61.63.63,0,0,1,.86,0,.74.74,0,0,1,.24.94A3.41,3.41,0,0,1,42,21L32.39,32c-.87,1-1,1-2.06.21l-5.27-4c-.35-.26-.64-.55-.49-1S25,26.82,25.29,26.78Z" id="1331351260"></path> 
</svg>