<svg id="1161171259" data-name="Layer 1" xmlns="http://www.w3.org/2000/svg" viewBox="0 0 200 200" class="svg u_1161171259" data-icon-custom="true" data-icon-name="premium.svg"> <title id="1990425968">premiumArtboard 1</title> 
 <path d="M100.35,197.24H26.73c-5.11,0-4.79-.22-5.38-5.35-.76-6.6,2.22-10.47,6.7-15,8.87-9,18.75-13.15,31.2-11.09,6.08,1,10.89-1.11,15.06-5.57,2.58-2.76,5.71-5,8.6-7.48A19.76,19.76,0,0,0,85,151c1.26-1.43,4.26.23,4.57-2.17a69.31,69.31,0,0,0,.1-9.43c0-1.25-1.06-1.72-1.93-2.29-17.45-11.42-22.12-28.12-19.2-47.63C71.2,72,79.87,42.25,89.85,27.88a5.55,5.55,0,0,1,5.29-2.61c3.93.16,7.88.14,11.81,0a5.26,5.26,0,0,1,5,2.43c10,14.34,17.22,44,19.95,61.51,3.07,19.68-1.62,36.48-19.28,47.91a3.6,3.6,0,0,0-1.88,3.54c.1,2.23.08,4.46,0,6.69-.05,1.66.21,2.85,2.27,2.8s3.28,1.5,4.67,2.65c5,4.19,9.46,9.82,15.24,12.23,5.94,2.48,13.21.83,19.88.62,4.37-.13,7.78.94,10.93,4a134.75,134.75,0,0,0,11.92,10.26,8.1,8.1,0,0,1,3.44,7.36c-.25,11.22,1.28,9.92-9.82,9.94Q134.8,197.28,100.35,197.24Zm11-65.82c1.34-1,2.32-1.57,3.19-2.3a31.21,31.21,0,0,0,3.13-3c9.15-10.3,11.23-22.46,9.21-35.63-2-12.88-7.42-39-14-50.12-5.87-9.87-4.72-9.91-15.94-9.59a2.92,2.92,0,0,1-.39,0,3.54,3.54,0,0,0-3.58,1.84C84.72,44.79,77.42,72.08,74.39,86.54s-1.72,28.19,8.77,39.77c1.78,2,3.6,3.94,6.42,4.68.64-10.4,3.76-6.93,10.42-7.18S110,120,111.37,131.42ZM32.79,181.21H168.84a90.24,90.24,0,0,1-6.83-6c-3.08-3.34-6.68-4.25-11.18-4.23-33.46.18-66.93.44-100.38-.14C41.76,170.69,38,176.32,32.79,181.21Zm67,10.72h42.09c9.57,0,19.15,0,28.72,0,1.82,0,2.95-.33,2.95-2.57s-1.06-2.7-2.92-2.61c-1,0-2.1,0-3.15,0H44c-4.85,0-9.7,0-14.56,0-3.29,0-2.79,2.34-2.26,4.1s2.48,1,3.8,1Q65.41,192,99.83,191.93Zm23.2-27c-7.47-8.64-9.54-9.6-20.45-9.6-4.06,0-8.12,0-12.18,0a5.31,5.31,0,0,0-4,1.26c-2.31,2.12-4.78,4.07-7.09,6.2-.69.63-2.15,1.12-1.6,2.33s1.87.65,2.86.65q19.64,0,39.28,0C120.89,165.75,122,166,123,164.92ZM95,137.24h0v5.5c0,8,0,8,7.93,7.38h.39c1.66.07,2.33-.73,2.32-2.38,0-6.94.06-7.42-.1-14.36-.08-3.24-1.69-4.16-5.28-4.14s-5,1.07-5.18,4.26A26.38,26.38,0,0,0,95,137.24Z" id="1249688321"></path> 
 <path d="M54.59,32.83c-.18-1.19-.44-2.44-.53-3.69,0-.33.61-.26.94-.33,2.59-.49,5.18-1,7.79-1.4.86-.14,1.12-.38.93-1.29-.54-2.63-1-5.28-1.48-7.91-.14-.71-.06-1,.74-1.18,3.12-.62,3.11-.66,3.69,2.52.36,2,.76,3.93,1.05,5.91.13.86.44,1,1.24.83,2.63-.53,5.28-.94,7.91-1.48.83-.17,1.08,0,1.23.84.56,3,.59,3-2.37,3.56-2,.36-3.93.76-5.91,1-.92.13-1.19.42-1,1.37.54,2.58.94,5.19,1.46,7.78.15.76.09,1.1-.8,1.26-3.06.57-3.05.61-3.61-2.47-.37-2-.77-4-1.08-6-.12-.79-.41-.92-1.15-.77-2.63.52-5.28,1-7.92,1.45A1.44,1.44,0,0,1,54.59,32.83Z" id="1062539749"></path> 
 <path d="M55,52.55a2.69,2.69,0,1,1,3.69-.64A2.71,2.71,0,0,1,55,52.55Z" id="1013683708"></path> 
 <path d="M55.48,5.51A2.69,2.69,0,1,1,51.78,6,2.71,2.71,0,0,1,55.48,5.51Z" id="1713535558"></path> 
 <path d="M133,38.79c-1.08-.36-2.23-.67-3.32-1.14-.29-.12,0-.62.13-.93.7-2.38,1.39-4.76,2.16-7.12.25-.78.16-1.1-.68-1.33-2.43-.67-4.83-1.45-7.26-2.15-.65-.19-.88-.38-.67-1.13.81-2.88.78-2.89,3.69-2,1.8.54,3.62,1,5.4,1.65.78.26,1,.06,1.22-.68.68-2.43,1.47-4.83,2.15-7.26.21-.76.48-.9,1.23-.67,2.78.83,2.79.79,2,3.51-.54,1.8-1,3.62-1.65,5.4-.28.83-.16,1.17.73,1.41,2.39.65,4.75,1.43,7.14,2.11.71.2,1,.39.72,1.21-.84,2.81-.8,2.82-3.61,2-1.84-.55-3.7-1.08-5.53-1.68-.71-.24-.95,0-1.14.64-.69,2.43-1.44,4.84-2.18,7.25C133.4,38.14,133.41,38.52,133,38.79Z" id="1209324942"></path> 
 <path d="M156.54,24.3a2.69,2.69,0,1,1,1.11-3.57A2.71,2.71,0,0,1,156.54,24.3Z" id="1913783731"></path> 
 <path d="M143.37,45.38a2.69,2.69,0,1,1-1.23,3.53A2.71,2.71,0,0,1,143.37,45.38Z" id="1191745368"></path> 
</svg>