<svg xmlns="http://www.w3.org/2000/svg" viewBox="0 0 70 70" id="1434161470" class="svg u_1434161470" data-icon-name="wp-timer_thin"> <g id="1761396765"> <path d="M39,10c-13.8,0-25,11.2-25,25v1.6l-6.3-6.3c-0.4-0.4-1-0.4-1.4,0c-0.4,0.4-0.4,1,0,1.4l8.7,8.7l8.7-8.7
		c0.4-0.4,0.4-1,0-1.4c-0.4-0.4-1-0.4-1.4,0L16,36.6V35c0-12.7,10.3-23,23-23c12.7,0,23,10.3,23,23S51.7,58,39,58
		c-6.2,0-11.9-2.4-16.3-6.7c-0.4-0.4-1-0.4-1.4,0c-0.4,0.4-0.4,1,0,1.4C26,57.4,32.3,60,39,60c13.8,0,25-11.2,25-25S52.8,10,39,10z" id="1544782830"></path> 
 <path d="M30.7,44.7l9-9c0.2-0.2,0.3-0.4,0.3-0.7V17c0-0.6-0.4-1-1-1c-0.6,0-1,0.4-1,1v17.6l-8.7,8.7c-0.4,0.4-0.4,1,0,1.4
		c0.2,0.2,0.5,0.3,0.7,0.3C30.3,45,30.5,44.9,30.7,44.7z" id="1374800073"></path> 
</g> 
</svg>