<?xml version="1.0" encoding="utf-8"?>
<!-- Generator: Adobe Illustrator 28.0.0, SVG Export Plug-In . SVG Version: 6.00 Build 0)  -->
<svg version="1.1" id="Vrstva_1" xmlns="http://www.w3.org/2000/svg" xmlns:xlink="http://www.w3.org/1999/xlink" x="0px" y="0px"
	 viewBox="0 0 685 686.5" style="enable-background:new 0 0 685 686.5;" xml:space="preserve">
<style type="text/css">
	.st0{fill:none;stroke:#09A2DD;stroke-width:50;stroke-linecap:round;stroke-miterlimit:133.3333;}
	.st1{fill:#09A2DD;}
</style>
<path class="st0" d="M375.9,28.2c0,0,77.8,7.1,176.8,106.1S658.7,311,658.7,311"/>
<path class="st0" d="M399.4,146c0,0,33,9.4,82.5,58.9c49.5,49.5,58.9,82.5,58.9,82.5"/>
<path class="st1" d="M429.2,462.4l-18.1-17.2L429.2,462.4z M444.4,446.4l18.1,17.2l0,0L444.4,446.4z M525,435.2l-12.5,21.7l0,0
	L525,435.2z M588.6,471.9l-12.5,21.7L588.6,471.9z M606.6,586.8l18.1,17.2L606.6,586.8z M559.2,636.6l-18.1-17.2L559.2,636.6z
	 M515.1,660.3l2.5,24.9L515.1,660.3z M186.4,510.7l18.1-17.2L186.4,510.7z M26,193.7L1,195l0,0L26,193.7z M241.8,244.9l18.1,17.2
	l0,0L241.8,244.9z M247,151.3l20.4-14.4L247,151.3z M205,91.8l-20.4,14.4l0,0L205,91.8z M101.3,81.8L119.4,99L101.3,81.8z
	 M48.9,136.9l-18.1-17.2l0,0L48.9,136.9z M294.6,396.7l18.1-17.2L294.6,396.7z M447.4,479.6l15.2-16l-36.3-34.4l-15.2,16
	L447.4,479.6z M512.5,456.9l63.7,36.7l24.9-43.3l-63.7-36.7L512.5,456.9z M588.5,569.6l-47.4,49.9l36.3,34.4l47.4-49.9L588.5,569.6z
	 M512.6,635.4c-47.8,4.7-172.6,0.7-308.1-141.9l-36.3,34.4c147.6,155.4,288.5,163.3,349.3,157.3L512.6,635.4z M204.5,493.4
	C75.3,357.4,53.6,242.7,50.9,192.4L1,195c3.3,61.6,29.5,187.8,167.3,332.9L204.5,493.4z M250.4,272.2l9.6-10.1l-36.3-34.4l-9.6,10.1
	L250.4,272.2z M267.4,136.8l-42-59.4l-40.8,28.9l42,59.4L267.4,136.8z M83.1,64.6l-52.3,55.1l36.3,34.4L119.4,99L83.1,64.6z
	 M232.2,255c-18.1-17.2-18.1-17.2-18.2-17.2c0,0,0,0,0,0.1c0,0-0.1,0.1-0.1,0.1c-0.1,0.1-0.1,0.1-0.2,0.2c-0.1,0.2-0.3,0.3-0.4,0.5
	c-0.3,0.4-0.7,0.8-1,1.2c-0.7,0.9-1.6,2.1-2.4,3.4c-1.7,2.7-3.6,6.3-5.2,10.8c-3.3,9.2-5,21.3-2.8,36.4
	c4.4,29.7,23.8,69.7,74.8,123.3l36.3-34.4c-47.6-50.1-59.3-81-61.5-96.1c-1.1-7.3,0-11.2,0.4-12.4c0.2-0.7,0.4-0.9,0.2-0.6
	c-0.1,0.1-0.2,0.3-0.5,0.7c-0.1,0.2-0.3,0.3-0.5,0.6c-0.1,0.1-0.2,0.2-0.3,0.3c-0.1,0.1-0.1,0.1-0.2,0.2c0,0-0.1,0.1-0.1,0.1
	c0,0,0,0,0,0C250.4,272.2,250.4,272.2,232.2,255z M276.5,413.9c50.8,53.4,89.1,74.5,118.3,79.2c15,2.4,27.2,0.5,36.4-3.1
	c4.5-1.8,8.1-3.9,10.7-5.8c1.3-0.9,2.4-1.8,3.3-2.6c0.4-0.4,0.8-0.8,1.2-1.1c0.2-0.2,0.3-0.3,0.5-0.5c0.1-0.1,0.1-0.1,0.2-0.2
	c0,0,0.1-0.1,0.1-0.1c0,0,0,0,0,0c0,0,0-0.1-18.1-17.3c-18.1-17.2-18.1-17.2-18.1-17.3c0,0,0,0,0-0.1c0,0,0.1-0.1,0.1-0.1
	c0.1-0.1,0.1-0.1,0.2-0.2c0.1-0.1,0.2-0.2,0.3-0.3c0.2-0.2,0.4-0.4,0.5-0.5c0.3-0.3,0.6-0.5,0.7-0.6c0.3-0.2,0.3-0.1-0.1,0
	c-0.6,0.3-3.7,1.3-10,0.3c-13.4-2.2-42.4-14-90.1-64.3L276.5,413.9z M225.4,77.4C191.6,29.6,124,21.5,83.1,64.6L119.4,99
	c17.4-18.3,48.1-16.9,65.2,7.2L225.4,77.4z M50.9,192.4c-0.7-13.3,5.1-26.6,16.1-38.3l-36.3-34.4C12.9,138.5-0.6,164.6,1,195
	L50.9,192.4z M541.1,619.4c-9.3,9.8-19,15-28.5,16l4.9,49.8c24.9-2.5,45.1-15.7,59.8-31.3L541.1,619.4z M259.9,262.1
	c32.3-34,34.5-87.1,7.5-125.3l-40.8,28.9c14.1,19.9,11.9,46.4-2.9,62L259.9,262.1z M576.2,493.6c27.4,15.8,32.7,54.5,12.3,76
	l36.3,34.4c43.5-45.8,30.8-122.4-23.6-153.8L576.2,493.6z M462.5,463.6c12.8-13.5,32.9-16.6,50-6.7l24.9-43.3
	c-36.6-21.1-82-15-111.2,15.6L462.5,463.6z"/>
</svg>
