<?xml version="1.0" standalone="no"?>
<!DOCTYPE svg PUBLIC "-//W3C//DTD SVG 20010904//EN"
 "http://www.w3.org/TR/2001/REC-SVG-20010904/DTD/svg10.dtd">
<svg version="1.0" xmlns="http://www.w3.org/2000/svg"
 width="1042.000000pt" height="1042.000000pt" viewBox="0 0 1042.000000 1042.000000"
 preserveAspectRatio="xMidYMid meet">

<g transform="translate(0.000000,1042.000000) scale(0.100000,-0.100000)"
fill="#000000" stroke="none">
<path d="M680 5325 l0 -4555 4665 0 4665 0 0 495 0 495 -55 0 -55 0 0 -440 0
-440 -4552 2 -4553 3 -3 4443 -2 4442 4555 0 4555 0 0 -426 0 -425 53 3 52 3
3 478 2 477 -4665 0 -4665 0 0 -4555z"/>
<path d="M9383 8545 c-16 -11 -37 -63 -77 -188 -31 -95 -63 -180 -73 -189 -10
-8 -76 -35 -148 -58 -272 -89 -338 -143 -274 -224 28 -36 54 -34 219 19 77 25
143 45 145 45 12 0 2 -68 -35 -220 -21 -91 -55 -255 -75 -365 -20 -110 -38
-210 -41 -221 -2 -12 -14 -25 -26 -28 -34 -9 -52 -27 -203 -206 -292 -344
-530 -550 -638 -550 -26 0 -36 6 -45 24 -53 116 30 478 160 693 88 145 162
208 258 220 64 7 90 32 90 84 0 62 -25 83 -109 87 -62 4 -78 1 -126 -23 -108
-53 -236 -209 -322 -394 -25 -53 -67 -141 -93 -196 -26 -55 -60 -129 -75 -165
-37 -89 -151 -309 -175 -340 l-20 -25 -1 55 c-2 107 2 207 16 340 8 74 16 172
17 218 3 83 3 84 -30 113 -35 32 -67 37 -97 15 -21 -15 -30 -31 -149 -276 -80
-165 -161 -293 -189 -298 -34 -7 -40 41 -27 226 7 95 9 183 6 196 -9 36 -33
56 -67 56 -76 0 -94 -36 -109 -215 -26 -290 7 -405 126 -451 36 -14 48 -14 81
-4 50 17 121 71 179 138 34 39 49 50 54 41 4 -8 10 -61 12 -119 5 -119 16
-148 77 -203 52 -47 97 -50 162 -8 43 27 124 123 156 185 l16 30 30 -63 c40
-86 94 -121 184 -121 135 0 268 84 504 319 91 92 203 211 248 265 l83 100 -9
-105 c-4 -57 -8 -171 -7 -254 0 -133 3 -157 24 -210 28 -72 91 -141 144 -159
82 -28 203 24 317 138 124 123 337 422 483 678 87 151 120 232 106 258 -15 28
-51 50 -81 50 -38 0 -69 -39 -189 -241 -185 -311 -322 -501 -457 -631 -74 -71
-115 -90 -139 -67 -34 35 -46 351 -19 534 33 231 146 798 207 1033 l31 122 51
15 c28 9 111 27 186 41 165 31 227 50 240 74 16 30 11 75 -10 98 -27 29 -82
29 -263 1 -76 -12 -140 -19 -143 -16 -3 3 8 57 25 119 17 63 31 129 31 146 0
57 -77 92 -127 57z"/>
<path d="M6936 8123 c-29 -45 -48 -109 -115 -383 -78 -321 -160 -571 -253
-771 -36 -78 -44 -90 -62 -85 -12 3 -55 9 -96 12 -66 5 -83 3 -140 -20 -84
-34 -186 -111 -256 -193 -30 -36 -72 -77 -92 -90 -20 -14 -66 -53 -102 -88
-72 -71 -223 -167 -255 -163 -19 3 -20 9 -17 90 8 188 -57 326 -169 359 -89
27 -170 -21 -237 -141 -19 -36 -46 -79 -59 -96 -35 -47 -56 -166 -57 -329 -1
-167 15 -234 70 -295 54 -59 128 -71 201 -32 33 18 105 103 143 171 l35 61 85
26 c91 28 149 55 220 103 l45 31 6 -60 c9 -86 44 -150 99 -177 170 -87 373 79
634 515 38 62 70 112 72 110 2 -3 -3 -89 -11 -194 -8 -104 -18 -322 -22 -486
l-6 -296 28 -26 c33 -31 84 -35 108 -8 24 26 37 109 37 236 0 251 32 655 76
971 36 254 75 463 154 820 89 399 90 406 57 439 -18 18 -37 26 -61 26 -30 0
-40 -6 -60 -37z m-506 -1421 c0 -48 -192 -327 -288 -418 -69 -66 -107 -84
-130 -61 -14 15 -15 24 -3 79 32 157 179 349 304 397 68 26 117 27 117 3z
m-1073 -137 c17 -46 13 -179 -5 -197 -29 -29 -80 91 -67 159 17 93 47 109 72
38z m-97 -375 l32 -30 -25 -42 c-44 -75 -67 -58 -67 50 0 62 12 67 60 22z"/>
<path d="M3585 7864 c-191 -30 -279 -65 -450 -179 -228 -153 -378 -296 -554
-530 -188 -251 -381 -562 -381 -613 0 -20 41 -62 78 -81 15 -8 28 -9 42 -1 10
6 69 93 129 194 166 278 283 437 451 610 165 171 304 276 464 352 305 144 577
114 631 -70 87 -293 -236 -831 -744 -1239 -125 -101 -318 -237 -336 -237 -15
0 7 103 110 521 58 233 108 449 112 480 5 54 4 57 -25 77 -37 27 -73 28 -97 2
-28 -31 -67 -160 -163 -545 -145 -576 -197 -824 -271 -1281 -47 -294 -71 -472
-71 -532 0 -59 36 -97 83 -88 18 4 40 15 50 24 21 21 47 141 77 352 29 202 66
421 97 579 31 156 40 171 147 233 432 250 858 674 1074 1068 110 201 165 411
143 546 -22 136 -84 235 -191 304 -107 68 -216 83 -405 54z"/>
<path d="M4903 7110 c-101 -52 -245 -238 -362 -472 -89 -177 -150 -328 -242
-603 -40 -121 -65 -181 -67 -166 -5 35 24 226 70 456 22 110 42 229 45 266 5
64 5 66 -26 92 -40 33 -65 34 -96 3 -30 -30 -47 -88 -90 -301 -116 -571 -116
-843 -1 -915 46 -28 79 -25 119 9 49 43 93 148 210 491 57 168 128 363 157
433 79 193 233 450 286 480 13 7 14 0 8 -51 -5 -44 -2 -66 10 -89 26 -52 82
-59 126 -15 32 32 60 138 60 224 -1 137 -99 212 -207 158z"/>
<path d="M9152 5473 c-32 -13 -54 -100 -111 -448 -59 -353 -100 -685 -121
-963 l-10 -132 -122 -148 c-159 -192 -420 -452 -521 -519 -114 -76 -173 -83
-194 -23 -46 135 55 515 191 718 84 126 157 181 239 182 74 0 114 84 68 141
-16 20 -30 24 -93 27 -98 5 -150 -19 -244 -112 -83 -84 -139 -166 -200 -296
-24 -52 -51 -106 -59 -120 -7 -14 -64 -122 -125 -240 -126 -244 -214 -383
-247 -388 -18 -3 -23 3 -29 33 -8 46 9 234 41 435 13 85 27 189 31 232 6 73 5
77 -19 102 -40 40 -92 36 -147 -11 -44 -38 -45 -38 -135 -38 -79 0 -97 -4
-148 -28 -72 -36 -159 -116 -212 -196 -22 -33 -50 -62 -62 -65 -12 -4 -60 -41
-106 -84 -118 -110 -269 -205 -296 -187 -6 3 -9 58 -9 123 1 97 -2 126 -20
172 -40 102 -108 160 -186 160 -41 0 -101 -22 -128 -47 -36 -32 -157 -248
-164 -292 -5 -30 -23 -64 -62 -115 -30 -39 -86 -114 -125 -166 -265 -357 -590
-677 -841 -829 -100 -60 -172 -84 -241 -79 -103 6 -143 52 -186 214 -18 64
-22 109 -22 234 -1 187 17 318 78 555 175 690 611 1398 788 1282 82 -53 129
-327 107 -613 -14 -179 -10 -205 43 -234 24 -13 30 -13 55 0 44 25 61 73 73
219 20 232 -13 507 -78 635 -104 208 -262 236 -463 81 -305 -235 -684 -1064
-766 -1675 -27 -203 -14 -442 33 -585 41 -128 109 -217 199 -261 51 -25 61
-26 152 -22 206 11 381 111 646 368 127 123 389 416 516 577 40 51 67 78 71
70 3 -7 9 -32 13 -55 9 -59 38 -113 81 -150 30 -27 44 -32 86 -32 92 0 148 46
240 197 36 59 38 59 115 82 99 29 174 67 259 131 36 27 68 50 71 50 2 0 4 -14
4 -31 0 -17 5 -39 11 -50 15 -28 98 -79 129 -79 61 0 132 50 271 191 l136 138
-1 -187 c-1 -223 12 -282 74 -344 33 -34 43 -38 87 -38 86 0 180 79 280 236
l47 74 17 -56 c40 -128 104 -179 219 -172 175 10 385 178 759 610 3 4 6 -85 6
-196 0 -190 1 -205 20 -226 31 -34 61 -42 95 -25 39 20 56 49 65 109 25 178
361 913 400 874 4 -3 -3 -89 -15 -190 -23 -191 -31 -406 -17 -471 10 -45 73
-119 117 -137 94 -39 239 82 415 346 81 122 155 265 155 301 0 36 -43 73 -84
73 -43 0 -61 -21 -151 -170 -109 -181 -240 -350 -272 -350 -19 0 -17 114 8
331 11 101 21 234 22 294 1 122 -9 153 -63 199 -102 85 -240 -35 -414 -358
-43 -80 -81 -146 -84 -146 -8 0 5 197 29 425 23 231 56 465 105 755 19 113 38
241 41 286 6 79 5 81 -22 102 -26 21 -64 27 -93 15z m-1832 -1756 c0 -19 -49
-86 -147 -199 -87 -102 -117 -126 -128 -107 -10 15 47 124 102 197 66 87 173
154 173 109z m-1002 -132 c17 -37 24 -115 15 -165 -7 -35 -13 -45 -28 -45 -29
0 -59 85 -51 147 9 83 41 114 64 63z m-79 -399 c8 -9 11 -26 7 -40 -8 -32 -52
-83 -62 -73 -10 10 -22 104 -16 133 4 22 6 23 31 9 15 -7 33 -21 40 -29z"/>
<path d="M1820 3176 c-103 -22 -230 -73 -321 -128 -113 -69 -268 -225 -330
-333 -105 -181 -144 -336 -136 -545 6 -165 28 -255 97 -395 157 -320 467 -526
826 -551 l94 -7 0 112 0 111 -35 0 -35 0 0 -70 c0 -80 -5 -83 -79 -49 -99 44
-190 148 -257 294 -27 59 -33 80 -23 85 20 13 177 41 269 48 l85 7 0 35 0 35
-65 -3 c-74 -4 -228 -27 -280 -42 -19 -5 -38 -6 -42 -2 -14 14 -47 194 -54
295 l-7 97 227 0 226 0 0 -55 0 -55 35 0 35 0 0 55 0 55 440 0 c438 0 440 0
440 -21 0 -17 5 -20 33 -17 l32 3 -2 110 c-7 419 -294 786 -710 911 -75 23
-110 27 -243 30 -105 2 -176 -1 -220 -10z m160 -280 c0 -124 -3 -227 -7 -229
-23 -14 -336 32 -356 52 -16 16 92 210 156 278 57 61 155 123 195 123 9 0 12
-52 12 -224z m149 198 c51 -21 118 -80 167 -147 45 -60 114 -195 114 -220 0
-15 -109 -42 -207 -52 -29 -3 -75 -7 -103 -10 l-50 -6 0 231 0 231 23 -7 c12
-3 37 -13 56 -20z m-445 -86 c-50 -65 -134 -219 -134 -246 0 -6 -5 -14 -10
-17 -12 -7 -190 74 -190 86 0 15 126 119 189 156 60 35 176 91 193 92 4 1 -17
-31 -48 -71z m713 27 c114 -53 291 -185 277 -207 -7 -11 -165 -88 -180 -88 -5
0 -22 31 -37 69 -33 81 -94 180 -145 235 -34 35 -35 38 -12 31 14 -4 57 -22
97 -40z m-1044 -294 c28 -16 77 -38 108 -51 l55 -22 -23 -102 c-13 -55 -26
-150 -30 -211 l-8 -110 -175 0 -175 0 3 58 c5 86 37 200 82 295 34 72 96 172
107 172 2 0 27 -13 56 -29z m1419 -29 c87 -137 148 -312 148 -424 l0 -48 -172
2 -172 3 -13 130 c-8 71 -22 166 -32 210 -11 44 -16 81 -13 83 4 1 52 24 107
51 55 27 102 50 105 50 3 0 21 -25 42 -57z m-298 -223 c8 -52 17 -128 18 -169
l3 -75 -222 -3 -223 -2 0 173 0 173 118 13 c64 6 151 20 192 29 l75 18 12 -32
c6 -17 18 -74 27 -125z m-769 132 c55 -11 139 -22 188 -26 l87 -7 -2 -172 -3
-171 -222 -3 -223 -2 0 52 c1 107 45 348 64 348 6 0 56 -9 111 -19z m-245
-520 c0 -58 10 -128 47 -332 4 -23 0 -27 -44 -44 -26 -9 -74 -31 -105 -48 -69
-35 -71 -34 -129 63 -49 83 -93 203 -113 310 -26 133 -44 120 164 120 l180 0
0 -69z m235 -708 c26 -29 41 -53 35 -53 -23 0 -182 80 -234 117 -66 47 -146
116 -146 125 0 9 46 34 125 69 l59 26 58 -116 c32 -65 78 -139 103 -168z"/>
<path d="M3260 2338 c-19 -5 -52 -14 -72 -19 l-37 -9 -26 -118 c-15 -64 -30
-120 -34 -125 -4 -4 -258 -24 -564 -44 -358 -24 -557 -41 -557 -48 1 -5 29
-111 63 -235 l62 -225 437 -3 c343 -2 436 -5 433 -15 -2 -6 -9 -31 -15 -54
-11 -43 -11 -43 -58 -43 -49 0 -108 -27 -118 -55 -9 -22 -419 -22 -428 0 -10
27 -69 55 -116 55 -79 0 -140 -60 -140 -138 0 -180 242 -205 285 -29 l7 27
179 0 178 0 11 -39 c20 -76 109 -126 183 -102 80 27 117 107 90 193 l-16 49
77 337 c43 185 89 385 103 444 l25 108 42 10 c73 19 76 21 76 40 0 49 -11 55
-70 38z m-190 -360 c0 -7 -19 -97 -42 -200 l-42 -188 -418 0 -417 0 -15 53
c-43 149 -75 271 -73 273 1 2 225 18 497 37 272 19 498 35 503 36 4 0 7 -5 7
-11z m-790 -668 c26 -26 26 -81 0 -105 -29 -26 -79 -24 -102 4 -56 70 39 164
102 101z m657 -2 c46 -43 16 -121 -45 -121 -43 0 -72 28 -72 70 0 65 69 96
117 51z"/>
<path d="M2200 1880 l0 -40 70 0 70 0 0 40 0 40 -70 0 -70 0 0 -40z"/>
<path d="M2490 1880 l0 -40 70 0 70 0 0 40 0 40 -70 0 -70 0 0 -40z"/>
<path d="M2780 1880 l0 -41 73 3 72 3 0 35 0 35 -72 3 -73 3 0 -41z"/>
<path d="M2340 1770 l0 -40 76 0 75 0 -3 38 -3 37 -72 3 -73 3 0 -41z"/>
<path d="M2634 1796 c-3 -8 -4 -25 -2 -38 3 -21 8 -23 76 -26 l72 -3 0 41 0
40 -70 0 c-52 0 -72 -4 -76 -14z"/>
<path d="M2200 1660 l0 -40 70 0 70 0 0 40 0 40 -70 0 -70 0 0 -40z"/>
<path d="M2490 1660 l0 -40 70 0 70 0 0 40 0 40 -70 0 -70 0 0 -40z"/>
<path d="M2780 1660 l0 -41 73 3 72 3 0 35 0 35 -72 3 -73 3 0 -41z"/>
<path d="M2200 1255 c0 -33 2 -35 35 -35 33 0 35 2 35 35 0 33 -2 35 -35 35
-33 0 -35 -2 -35 -35z"/>
<path d="M2850 1254 c0 -35 1 -35 38 -32 34 3 37 6 40 36 3 31 2 32 -37 32
-40 0 -41 -1 -41 -36z"/>
</g>
</svg>
