<?xml version="1.0" encoding="utf-8"?>
<!-- Generator: Adobe Illustrator 28.0.0, SVG Export Plug-In . SVG Version: 6.00 Build 0)  -->
<svg version="1.1" xmlns="http://www.w3.org/2000/svg" xmlns:xlink="http://www.w3.org/1999/xlink" x="0px" y="0px"
	 viewBox="0 0 841.9 304.8" style="enable-background:new 0 0 841.9 304.8;" xml:space="preserve">
<style type="text/css">
	.st0{display:none;}
	.st1{display:inline;fill:#E5231E;stroke:#FFFFFF;stroke-width:33.2426;stroke-miterlimit:10;}
	.st2{fill:#FFFFFF;}
	.st3{fill:#592D2A;}
	.st4{fill:#E9D9CA;}
	.st5{fill:#592E2A;}
</style>
<g id="Vrstva_1" class="st0">
	<rect x="-3.9" y="-869.7" class="st1" width="862.7" height="3410"/>
</g>
<g id="_x30_">
	<path class="st2" d="M360.6,23.8c0.5,0,1,0,1.5-0.1c0.2,0,0.5-0.1,0.7-0.1c4.1-0.5,6.4-2.3,8.8-5c1.2-1.3,2.9-4.1,3.5-5.7l0.7,0.3
		c0.5,0.2,0.6,0.3,0.6,0.5c0,0.2-0.2,0.8-1.1,2.6c-0.9,1.7-2,4-2,5.2c0,1.5,0.8,2.3,2.4,2.3c1.8,0,3.9-0.8,5.9-1.9
		c0.4,1.2,1.6,1.9,4.3,1.9c4.2,0,6.8-1,9.9-8.9l0.1-0.1l0.2,0c2.3-0.1,4.1-0.6,5.3-1.4c0.7,1,0.9,2.1,0.9,3.5c0,1.5-1.2,3.4-2.7,3.4
		c-0.2,0-0.3,0-0.4-0.1c0,0,0,0,0,0c0,0-0.1,0-0.1,0c0,0,0,0-0.1,0c0,0,0,0-0.1,0c-0.2-0.1-0.3-0.3-0.5-0.5c0,0,0,0,0,0
		c0-0.1-0.1-0.1-0.1-0.2c0,0,0,0,0,0c0-0.1-0.1-0.1-0.1-0.2c0,0,0-0.1,0-0.1c0,0,0-0.1,0-0.1c0,0,0-0.1,0-0.1c0-0.1,0-0.1-0.1-0.2
		c0,0,0,0,0-0.1c-0.1-0.3-0.1-0.7-0.2-1.1l0-0.1c0-0.1-0.2-0.2-0.3-0.1l-1.5,1.5c0,0,0,0.1,0,0.1v0.4c0,0.4,0.1,0.8,0.2,1.1
		c0,0.1,0,0.2,0.1,0.3c0,0,0,0.1,0,0.1c0,0.1,0,0.1,0.1,0.2c0.2,0.5,0.5,1,0.8,1.3c0,0,0.1,0.1,0.1,0.1c0,0,0.1,0.1,0.1,0.1
		c0.1,0.1,0.1,0.1,0.2,0.2c0,0,0.1,0.1,0.1,0.1c0,0,0.1,0,0.1,0.1c0,0,0,0,0,0c0.8,0.6,1.9,0.9,3,0.9l0,0h0c3.6,0,6.1-2,8.6-4.3
		c0.1,2.3,2.2,4.3,4.8,4.3c2.6,0,5.3-0.8,7.5-2.1c0.7,2.1,3.9,2.1,5.7,2.1c0.5,0,1,0,1.5-0.1c1.5-0.2,2.9-0.6,4.3-1.2
		c0.5,0.9,1.6,1.3,2.8,1.3c2.1,0,3.2-0.6,4.2-1.4c1.1,0.9,1.8,1.1,2.4,1.2c1.6,0.1,2.9,0,4-0.6l-1.2,2.6c-0.4,0.9-0.6,1.7-0.6,2.4
		c0,1.7,0.8,2.7,3.4,2.7c3.1,0,5.1-1,6.1-3.2l1-2.2c0.5-1.1,0.7-2,0.7-2.6c0-0.2,0-0.4-0.1-0.5c0.3,0.1,0.5,0.1,1.3,0.1
		c0.9,0,1.9-0.2,2.8-0.7c0.3,1.9,2.2,2.2,5.3,2.2c2.3,0,4.3-0.7,6-1.6c0,0,0.1,0,0.1-0.1l1.1-2.5c0.1-0.1-0.1-0.3-0.2-0.2
		c-1.9,1.2-4.3,1.9-6.5,2c-0.6,0-1.1,0.1-1.2-0.7c-0.1-0.7,0.5-1.6,0.9-2.8c2.5-0.1,6.4-0.6,7.9-2.5c1-1.4,1.5-3,1.5-4.1
		c0.1-1.5-0.9-2.2-4.5-2.2c-4.6,0.1-6.7,1.6-8.3,5.3l-1.2,2.6c-0.3,0.7-0.6,1.4-0.7,2c-0.9,0.6-1.7,0.9-2.3,0.9c-1,0-1.7-0.7-2-1.9
		c1.7-0.7,3.9-3.3,5-5.8l3.9-8.6c0.2-0.6,0.4-1.1,0.4-1.6c0-1.4-1.1-2.1-3.2-2.1c-3.7,0-5.7,0.9-7,3.8l-4.7,10.5l-2.4,5.3
		c-1,0.7-2,1.2-2.8,1.1c-1.1-0.1,0.3-2.6,0.4-3c0.1-0.2,3.4-7.8,3.4-7.8c0-0.1,0-0.2-0.1-0.2h-3.7c-0.1,0-0.1,0-0.1,0.1l-0.3,0.7
		c-0.5-0.8-1.1-1.4-2.9-1.4c-2.6,0-4.8,1.3-7.5,6.7c-0.9,1.7-1.4,3.3-1.6,4.5c-0.8,0.3-1.6,0.6-2.5,0.8c-1.2,0.3-2.2,0.3-2.7,0.3
		c-0.8,0-1.2-0.2-1.2-0.6c0-0.2,0.3-1,1.3-3.2l6.1-13.9c0.5-1.2,1-1.4,1.8-1.4c0.7,0,1,0.2,1,0.5c0,0.3-0.4,1.2-0.7,2
		c-0.1,0.1,0.1,0.2,0.2,0.2l5-1.8c0,0,0.1-0.1,0.1-0.1c0.1-0.3,0.2-0.8,0.2-1.1c0-1.6-1.5-2.1-4.7-2.1c-4.6,0-7.3,1.5-9.1,5.7
		l-4.4,9.8c-0.7,1.6-1.1,2.7-1.4,3.5c-0.9,0.8-1.7,1.1-2.7,1.4c1.2-1.2,1.7-2.1,1.7-4.3c0-1.3-0.9-3.1-2.7-5.5
		c2.1-1.9,2.4-3,2.4-3.8c0-1.3-0.8-1.7-2-1.7c-2.5,0-4.4,2.6-4.4,5.1c0,0.3,0,0.9,0.1,1.3l0.1,0.3c-1.4,1.4-2.8,2.7-3.7,3.6
		c-1.1,1-3.3,3-4.6,4c0,0,1.5-1.6,1.4-3.5c0-1.1-0.6-2.7-2.7-5.3c2.1-1.9,2.4-3,2.4-3.9c0-1.3-0.8-1.7-2-1.7c-2.5,0-4.4,2.6-4.4,5.1
		c0,0.3,0,0.7,0.1,1c-1.2,0.7-2.8,1-3.6,1c-0.2,0-0.3,0-0.5-0.1c0.4-0.9,0.6-1.6,0.6-2.2c0-1.1-0.7-1.8-2.2-1.8
		c-1.2,0-2.2,0.4-3,1.1c-0.3-0.1-0.6-0.1-1.4-0.1c-2.6,0-4.8,1.3-6.7,5.4l-1.6,3.4c-0.2,0.5-0.4,0.9-0.5,1.4c-0.7,0.4-1.4,0.7-2,0.7
		c-0.3,0-0.5-0.1-0.5-0.5c0-1.5,2-4.3,2-5.3c0-0.4-0.3-0.9-0.9-1.3l-8.1-4.8c-0.1,0-0.2,0-0.2,0.1c-0.7,1.9-1.4,4.2-2.4,6
		c-1.3,2.5-2.1,4.9-4.6,6.3c-0.4,0.2-1.2,0.5-1.9,0.6c-1.1,0.2-1.9,0.2-2.4,0.2c-0.8,0-1.2-0.2-1.2-0.6c0-0.2,0.3-1,1.3-3.2
		l6.1-13.9c0.5-1.2,1-1.4,1.8-1.4c0.7,0,1,0.2,1,0.5c0,0.3-0.4,1.2-0.7,2c-0.1,0.1,0.1,0.2,0.2,0.2l5-1.8c0,0,0.1-0.1,0.1-0.1
		c0.1-0.3,0.2-0.8,0.2-1.1c0-1.6-1.5-2.1-4.7-2.1c-4.6,0-7.3,1.5-9.1,5.7l-4.4,9.8c-1.4,3.2-1.7,4.3-1.7,5.2
		C354.7,23.7,358.6,23.8,360.6,23.8 M467.9,12.6c0.1-0.2,0.5-1,1.4-1c0.5,0,0.8,0.2,0.9,0.6c0,0.2,0,0.5-0.1,0.8l-0.4,0.9
		c-0.8,1.7-1.8,1.8-2.5,1.8c-0.1,0-0.1,0-0.2,0c0,0-0.1,0-0.1,0h-0.3L467.9,12.6z M460.7,3.2c0.2-0.4,0.5-0.6,1-0.6
		c0.2,0,0.4,0,0.5,0.1c0.1,0.1,0.1,0.2,0.1,0.4c0,0,0,0,0,0.1c0,0.1,0,0.3-0.1,0.4l-4,8.8c-1,2.1-1.8,2.7-2.6,3.1l-0.6,0.3
		L460.7,3.2z M450.2,26.7c0.1-0.3,0.3-0.7,0.5-1c0.3-0.7,0.6-1.5,1-2.2l1-2.2c0.1-0.3,0.3-0.7,0.4-1l0.2,0.1c0.7,0.5,0.3,1.7,0.3,2
		c-0.1,0.7-0.4,1.4-0.6,2l-1.2,2.8c-0.3,0.6-0.7,0.8-1.3,0.8c-0.2,0-0.4-0.1-0.4-0.3C449.9,27.4,450.1,27,450.2,26.7 M437.7,19.3
		l2.9-6.5c0.3-0.7,0.7-1.3,1.6-1.3c0.6,0,0.8,0.4,0.8,0.7c0,0.5-0.3,0.9-0.5,1.4c-0.3,0.6-0.5,1.1-0.8,1.7l-0.9,2
		c-0.2,0.5-0.5,1.1-0.7,1.7l-0.3,0.7c-0.4,0.8-0.7,1.6-1.7,1.6c-0.5,0-0.8-0.3-0.8-0.8C437.4,20.2,437.5,19.8,437.7,19.3 M417.9,7.2
		c0.2,0,0.3,0.1,0.3,0.3c0,0.4-0.2,0.8-1.1,1.5c-0.1-0.2-0.1-0.7-0.1-0.8C417.1,7.6,417.3,7.2,417.9,7.2 M415,13.9
		c0.4,0.8,0.6,1.8,0.6,3c0,1.5-1.2,3.4-2.7,3.4c-0.9,0-1.5-1-1.6-2.5C412.3,16.6,413.9,15,415,13.9 M403.8,7.6
		c0-0.1,0.1-0.2,0.2-0.3l0,0c0,0,0,0,0,0c0,0,0.1,0,0.1-0.1c0.1,0,0.2-0.1,0.4-0.1c0.1,0,0.1,0,0.1,0c0,0,0.1,0,0.1,0.1
		c0.1,0.1,0.1,0.1,0.1,0.3c0,0.2,0,0.5-0.3,0.8c-0.2,0.2-0.4,0.4-0.8,0.6c0-0.2-0.1-0.6-0.1-0.8C403.7,8,403.7,7.8,403.8,7.6
		 M394.4,10.3c0.4,0,0.5,0.3,0.5,0.8c0,0.3-0.1,0.8-0.3,1c-0.7,0-1.1-0.3-1.1-1C393.6,10.5,393.8,10.3,394.4,10.3 M386.7,19.3
		l2.9-6.5c0.3-0.6,0.6-1.2,1.5-1.3c0,0.4,0.1,0.8,0.3,1.2c0.1,0.2,0.2,0.3,0.3,0.5c-0.1,0.1-0.1,0.3-0.2,0.4
		c-0.3,0.6-0.5,1.1-0.8,1.7c-0.3,0.7-0.6,1.3-0.9,2c-0.2,0.5-0.5,1.1-0.7,1.7c-0.1,0.2-0.2,0.5-0.3,0.7c-0.4,0.8-0.7,1.6-1.7,1.6
		c-0.5,0-0.8-0.3-0.8-0.8C386.3,20.2,386.5,19.8,386.7,19.3"/>
	<path class="st2" d="M458.8,53.3l32.3-38.1l-5.8-4.9l-31,36.6V32.5h-7.6v20.7h-13.2V40.1v-7.6H426h-7.4H411v7.6v29.3v7.6v34.2
		l-17.1-34.2h9.1v-2.1v-5.5V40.1v-7.6h-7.6h-18.7h-7.6h-6.5h-7.6h-16.6v7.6h16.6v79.8h7.6v-43h14V76v-6.6V40.1h18.7v29.3h-5.9v0
		h-7.6v31.8l-26.9,34.6v53.3h7.6v-50.7l19.4-24.9v75.6h7.6v-34.9l18.8,34.6v0.3h10.5h7.6v-7.6v-50.7l29.2,58.3h7.6v-41.3h9v157h7.6
		V107h-0.7h-6.9h-9h-7h-0.6v65.3l-6.7-13.5V96.9h30.8v-7.6h-30.8V76.9h30.8v-0.2v-7.3v-8.6v-7.6h-7.6H458.8z M369.2,69.4h-6.5V40.1
		h6.5V69.4z M472.2,140.3h-9v-25.7h9V140.3z M418.6,40.1h7.4v29.3h-7.4V40.1z M426,119.9h-7.4v-43h7.4V119.9z M389.6,119.9V85.2
		l17.4,34.7H389.6z M389.6,127.5h14.3v16.7h-14.3V127.5z M413.1,181.6l-16.2-29.9h7.1h7.6v-7.6v-16.7h7.5v54.1H413.1z M472.2,69.4
		h-23.3h-4.7h-2.9v74.3l-7.8-15.6V76.9v-7.6v-8.6h38.6V69.4z"/>
	<path class="st2" d="M476.5,41.3c-1.8,0-3.3,1.2-3.3,3.3c0,1.8,1.1,3.2,3.3,3.2c1.9,0,3.3-1.3,3.3-3.3
		C479.8,42.5,478.5,41.3,476.5,41.3 M476.5,47.5c-1.8,0-2.9-1.1-2.9-2.8c0-1.8,1.3-2.9,2.9-2.9c1.7,0,2.9,0.9,2.9,2.8
		C479.4,46.3,478.2,47.5,476.5,47.5"/>
	<path class="st2" d="M477.7,43.8c0-0.5-0.2-1-1.2-1h-1v3.6h0.4v-1.5h0.8l0.9,1.5h0.4l-0.9-1.6C477.5,44.6,477.7,44.2,477.7,43.8
		 M476.4,44.5h-0.5v-1.3h0.5c0.6,0,0.9,0.2,0.9,0.6C477.3,44.3,477,44.5,476.4,44.5"/>
</g>
<g id="_x31_">
	<rect x="338.2" y="371.5" class="st3" width="139.6" height="7.5"/>
	<rect x="472.2" y="306.2" class="st3" width="7.6" height="95.8"/>
</g>
<g id="_x32_">
	<rect x="472.2" y="403.5" class="st3" width="7.6" height="99.2"/>
</g>
<g id="_x33_">
	<rect x="297.5" y="551" class="st3" width="149.5" height="7.5"/>
	<rect x="472.2" y="504.1" class="st3" width="7.6" height="21.6"/>
	
		<rect x="437.5" y="535.7" transform="matrix(0.7071 -0.7071 0.7071 0.7071 -246.5263 483.7677)" class="st3" width="46.4" height="7.5"/>
	<rect x="411.1" y="558" class="st3" width="7.5" height="21.9"/>
</g>
<g id="_x33__mid">
	<rect x="297.5" y="608.5" class="st3" width="120.1" height="7.5"/>
	<rect x="411.1" y="581.3" class="st3" width="7.5" height="61.7"/>
</g>
<g id="_x34_">
	<rect x="411.1" y="644.4" class="st3" width="7.5" height="28"/>
	<rect x="454.1" y="691.2" class="st3" width="7.5" height="14.1"/>
	
		<rect x="432.6" y="655.1" transform="matrix(0.4772 -0.8788 0.8788 0.4772 -371.0497 739.9536)" class="st3" width="7.5" height="53.4"/>
</g>
<g id="_x35_">
	<rect x="454.1" y="706.7" class="st4" width="7.5" height="135.6"/>
	<rect x="388.4" y="821" class="st4" width="67.3" height="7.5"/>
</g>
<g id="_x36_">
	
		<rect x="432.8" y="865" transform="matrix(6.123234e-17 -1 1 6.123234e-17 -410.9163 1326.5908)" class="st4" width="50" height="7.5"/>
	
		<rect x="476.2" y="927.6" transform="matrix(6.123234e-17 -1 1 6.123234e-17 -443.9902 1418.7852)" class="st4" width="22.3" height="7.5"/>
	
		<rect x="450.2" y="903.2" transform="matrix(0.7071 0.7071 -0.7071 0.7071 779.772 -68.5372)" class="st4" width="44.9" height="7.5"/>
</g>
<g id="_x37_">
	
		<rect x="444.7" y="982.9" transform="matrix(6.123234e-17 -1 1 6.123234e-17 -499.2951 1474.0881)" class="st4" width="85.4" height="7.5"/>
	
		<rect x="600.7" y="1067.1" transform="matrix(6.123234e-17 -1 1 6.123234e-17 -448.4737 1693.2874)" class="st4" width="43.3" height="7.5"/>
	
		<rect x="398.8" y="1056.3" transform="matrix(6.123234e-17 -1 1 6.123234e-17 -628.6938 1491.3502)" class="st4" width="65" height="7.5"/>
	
		<rect x="238.8" y="1078.1" transform="matrix(6.123234e-17 -1 1 6.123234e-17 -832.3289 1331.3853)" class="st4" width="21.4" height="7.5"/>
	<rect x="294.6" y="1022.3" class="st4" width="304.6" height="7.5"/>
	
		<rect x="591" y="1034.7" transform="matrix(0.7071 0.7071 -0.7071 0.7071 912.9456 -127.2218)" class="st4" width="38.1" height="7.5"/>
	
		<rect x="238.3" y="1045.6" transform="matrix(0.7071 -0.7071 0.7071 0.7071 -662.1176 500.2965)" class="st4" width="69.1" height="7.5"/>
</g>
<g id="_x38_">
	
		<rect x="410" y="1111.6" transform="matrix(1.256840e-07 -1 1 1.256840e-07 -683.979 1546.634)" class="st4" width="42.7" height="7.5"/>
	
		<rect x="397.4" y="1163.7" transform="matrix(5.830888e-07 -1 1 5.830888e-07 -765.4749 1569.4645)" class="st4" width="9.2" height="7.5"/>
	
		<rect x="394.4" y="1146" transform="matrix(0.7071 -0.7071 0.7071 0.7071 -690.9641 631.3806)" class="st4" width="44.6" height="7.5"/>
</g>
<g id="_x39_">
	<g id="Vrstva_11">
		<rect x="601.1" y="1289.9" class="st4" width="36.8" height="43.8"/>
		<polygon class="st4" points="637.9,1349.8 621.8,1333.7 637.9,1333.7 		"/>
		<path class="st5" d="M610.7,1298.9c0.1,0,0.2,0,0.2,0c0,0,0.1,0,0.1,0c0.7-0.1,1-0.4,1.4-0.8c0.2-0.2,0.5-0.6,0.6-0.9l0.1,0
			c0.1,0,0.1,0.1,0.1,0.1c0,0,0,0.1-0.2,0.4c-0.1,0.3-0.3,0.6-0.3,0.8c0,0.2,0.1,0.4,0.4,0.4c0.3,0,0.6-0.1,0.9-0.3
			c0.1,0.2,0.3,0.3,0.7,0.3c0.7,0,1.1-0.2,1.6-1.4l0,0l0,0c0.4,0,0.6-0.1,0.8-0.2c0.1,0.2,0.1,0.3,0.1,0.5c0,0.2-0.2,0.5-0.4,0.5
			c0,0,0,0-0.1,0c0,0,0,0,0,0c0,0,0,0,0,0c0,0,0,0,0,0c0,0,0,0,0,0c0,0-0.1,0-0.1-0.1c0,0,0,0,0,0l0,0c0,0,0,0,0,0c0,0,0,0,0,0
			c0,0,0,0,0,0c0,0,0,0,0,0c0,0,0,0,0,0c0,0,0,0,0,0c0,0,0,0,0,0c0-0.1,0-0.1,0-0.2v0c0,0,0,0,0,0l-0.2,0.2c0,0,0,0,0,0v0.1
			c0,0.1,0,0.1,0,0.2c0,0,0,0,0,0c0,0,0,0,0,0c0,0,0,0,0,0c0,0.1,0.1,0.2,0.1,0.2c0,0,0,0,0,0c0,0,0,0,0,0c0,0,0,0,0,0c0,0,0,0,0,0
			c0,0,0,0,0,0c0,0,0,0,0,0c0.1,0.1,0.3,0.1,0.5,0.1v0h0c0.6,0,1-0.3,1.4-0.7c0,0.4,0.3,0.7,0.8,0.7c0.4,0,0.8-0.1,1.2-0.3
			c0.1,0.3,0.6,0.3,0.9,0.3c0.1,0,0.2,0,0.2,0c0.2,0,0.5-0.1,0.7-0.2c0.1,0.1,0.2,0.2,0.4,0.2c0.3,0,0.5-0.1,0.7-0.2
			c0.2,0.1,0.3,0.2,0.4,0.2c0.2,0,0.5,0,0.6-0.1l-0.2,0.4c-0.1,0.2-0.1,0.3-0.1,0.4c0,0.3,0.1,0.4,0.5,0.4c0.5,0,0.8-0.2,1-0.5
			l0.2-0.3c0.1-0.2,0.1-0.3,0.1-0.4c0,0,0-0.1,0-0.1c0,0,0.1,0,0.2,0c0.1,0,0.3,0,0.4-0.1c0,0.3,0.3,0.3,0.8,0.3
			c0.4,0,0.7-0.1,1-0.3c0,0,0,0,0,0l0.2-0.4c0,0,0,0,0,0c-0.3,0.2-0.7,0.3-1,0.3c-0.1,0-0.2,0-0.2-0.1c0-0.1,0.1-0.3,0.1-0.4
			c0.4,0,1-0.1,1.2-0.4c0.2-0.2,0.2-0.5,0.2-0.6c0-0.2-0.1-0.4-0.7-0.3c-0.7,0-1.1,0.3-1.3,0.8l-0.2,0.4c-0.1,0.1-0.1,0.2-0.1,0.3
			c-0.1,0.1-0.3,0.1-0.4,0.1c-0.2,0-0.3-0.1-0.3-0.3c0.3-0.1,0.6-0.5,0.8-0.9l0.6-1.4c0-0.1,0.1-0.2,0.1-0.3c0-0.2-0.2-0.3-0.5-0.3
			c-0.6,0-0.9,0.2-1.1,0.6l-0.7,1.7l-0.4,0.8c-0.2,0.1-0.3,0.2-0.4,0.2c-0.2,0,0-0.4,0.1-0.5c0,0,0.5-1.2,0.5-1.2c0,0,0,0,0,0h-0.6
			c0,0,0,0,0,0l0,0.1c-0.1-0.1-0.2-0.2-0.5-0.2c-0.4,0-0.8,0.2-1.2,1.1c-0.1,0.3-0.2,0.5-0.2,0.7c-0.1,0.1-0.3,0.1-0.4,0.1
			c-0.2,0-0.3,0-0.4,0c-0.1,0-0.2,0-0.2-0.1c0,0,0-0.2,0.2-0.5l1-2.2c0.1-0.2,0.2-0.2,0.3-0.2c0.1,0,0.2,0,0.2,0.1s-0.1,0.2-0.1,0.3
			c0,0,0,0,0,0l0.8-0.3c0,0,0,0,0,0c0-0.1,0-0.1,0-0.2c0-0.2-0.2-0.3-0.7-0.3c-0.7,0-1.1,0.2-1.4,0.9l-0.7,1.5
			c-0.1,0.3-0.2,0.4-0.2,0.6c-0.1,0.1-0.3,0.2-0.4,0.2c0.2-0.2,0.3-0.3,0.3-0.7c0-0.2-0.1-0.5-0.4-0.9c0.3-0.3,0.4-0.5,0.4-0.6
			c0-0.2-0.1-0.3-0.3-0.3c-0.4,0-0.7,0.4-0.7,0.8c0,0,0,0.1,0,0.2l0,0c-0.2,0.2-0.4,0.4-0.6,0.6c-0.2,0.2-0.5,0.5-0.7,0.6
			c0,0,0.2-0.3,0.2-0.5c0-0.2-0.1-0.4-0.4-0.8c0.3-0.3,0.4-0.5,0.4-0.6c0-0.2-0.1-0.3-0.3-0.3c-0.4,0-0.7,0.4-0.7,0.8
			c0,0,0,0.1,0,0.2c-0.2,0.1-0.4,0.2-0.6,0.2c0,0,0,0-0.1,0c0.1-0.1,0.1-0.3,0.1-0.4c0-0.2-0.1-0.3-0.4-0.3c-0.2,0-0.3,0.1-0.5,0.2
			c0,0-0.1,0-0.2,0c-0.4,0-0.8,0.2-1.1,0.9l-0.2,0.5c0,0.1-0.1,0.1-0.1,0.2c-0.1,0.1-0.2,0.1-0.3,0.1c-0.1,0-0.1,0-0.1-0.1
			c0-0.2,0.3-0.7,0.3-0.8c0-0.1,0-0.1-0.1-0.2l-1.3-0.8c0,0,0,0,0,0c-0.1,0.3-0.2,0.7-0.4,0.9c-0.2,0.4-0.3,0.8-0.7,1
			c-0.1,0-0.2,0.1-0.3,0.1c-0.2,0-0.3,0-0.4,0c-0.1,0-0.2,0-0.2-0.1c0,0,0-0.2,0.2-0.5l1-2.2c0.1-0.2,0.2-0.2,0.3-0.2
			c0.1,0,0.2,0,0.2,0.1s-0.1,0.2-0.1,0.3c0,0,0,0,0,0l0.8-0.3c0,0,0,0,0,0c0-0.1,0-0.1,0-0.2c0-0.2-0.2-0.3-0.7-0.3
			c-0.7,0-1.1,0.2-1.4,0.9l-0.7,1.5c-0.2,0.5-0.3,0.7-0.3,0.8C609.8,1298.9,610.4,1298.9,610.7,1298.9 M627.7,1297.1
			c0,0,0.1-0.2,0.2-0.2c0.1,0,0.1,0,0.1,0.1c0,0,0,0.1,0,0.1l-0.1,0.1c-0.1,0.3-0.3,0.3-0.4,0.3h0h0h0L627.7,1297.1z M626.5,1295.6
			c0-0.1,0.1-0.1,0.2-0.1c0,0,0.1,0,0.1,0c0,0,0,0,0,0.1v0c0,0,0,0,0,0.1l-0.6,1.4c-0.2,0.3-0.3,0.4-0.4,0.5l-0.1,0L626.5,1295.6z
			 M624.9,1299.3c0-0.1,0-0.1,0.1-0.2c0.1-0.1,0.1-0.2,0.2-0.3l0.2-0.3c0-0.1,0-0.1,0.1-0.2l0,0c0.1,0.1,0,0.3,0,0.3
			c0,0.1-0.1,0.2-0.1,0.3l-0.2,0.4c0,0.1-0.1,0.1-0.2,0.1c0,0-0.1,0-0.1-0.1C624.8,1299.4,624.8,1299.4,624.9,1299.3 M622.9,1298.2
			l0.5-1c0-0.1,0.1-0.2,0.2-0.2c0.1,0,0.1,0.1,0.1,0.1c0,0.1,0,0.1-0.1,0.2c0,0.1-0.1,0.2-0.1,0.3c0,0.1-0.1,0.2-0.1,0.3
			c0,0.1-0.1,0.2-0.1,0.3c0,0,0,0.1,0,0.1c-0.1,0.1-0.1,0.3-0.3,0.3c-0.1,0-0.1-0.1-0.1-0.1C622.8,1298.3,622.9,1298.2,622.9,1298.2
			 M619.8,1296.2C619.8,1296.2,619.8,1296.3,619.8,1296.2c0,0.1,0,0.2-0.1,0.3c0,0,0-0.1,0-0.1
			C619.6,1296.3,619.7,1296.2,619.8,1296.2 M619.3,1297.3c0.1,0.1,0.1,0.3,0.1,0.5c0,0.2-0.2,0.5-0.4,0.5c-0.1,0-0.2-0.2-0.3-0.4
			C618.9,1297.7,619.1,1297.5,619.3,1297.3 M617.5,1296.3C617.5,1296.3,617.6,1296.3,617.5,1296.3L617.5,1296.3L617.5,1296.3
			C617.6,1296.3,617.6,1296.3,617.5,1296.3c0.1-0.1,0.1-0.1,0.1-0.1c0,0,0,0,0,0c0,0,0,0,0,0c0,0,0,0,0,0c0,0,0,0.1,0,0.1
			c0,0-0.1,0.1-0.1,0.1C617.5,1296.5,617.5,1296.4,617.5,1296.3C617.5,1296.4,617.5,1296.3,617.5,1296.3 M616.1,1296.7
			c0.1,0,0.1,0.1,0.1,0.1c0,0.1,0,0.1,0,0.2c-0.1,0-0.2,0-0.2-0.2C615.9,1296.8,616,1296.7,616.1,1296.7 M614.8,1298.2l0.5-1
			c0-0.1,0.1-0.2,0.2-0.2c0,0.1,0,0.1,0.1,0.2c0,0,0,0.1,0.1,0.1c0,0,0,0,0,0.1l-0.1,0.3c0,0.1-0.1,0.2-0.1,0.3
			c0,0.1-0.1,0.2-0.1,0.3c0,0,0,0.1,0,0.1c-0.1,0.1-0.1,0.3-0.3,0.3c-0.1,0-0.1-0.1-0.1-0.1C614.8,1298.3,614.8,1298.2,614.8,1298.2
			"/>
		<path class="st5" d="M626.2,1303.5l5.1-6l-0.9-0.8l-4.9,5.8v-2.3h-1.2v3.3h-2.1v-2.1v-1.2H621h-1.2h-1.2v1.2v4.6v1.2v5.4l-2.7-5.4
			h1.4v-0.3v-0.9v-4.6v-1.2h-1.2h-3h-1.2h-1h-1.2h-2.6v1.2h2.6v12.6h1.2v-6.8h2.2v-0.1v-1v-4.6h3v4.6h-0.9h-1.2v5l-4.2,5.5v8.4h1.2
			v-8l3.1-3.9v11.9h1.2v-5.5l3,5.5v0h1.7h1.2v-1.2v-8l4.6,9.2h1.2v-6.5h1.4v9.2h1.2V1312h-0.1h-1.1h-1.4h-1.1h-0.1v10.3l-1.1-2.1
			v-9.8h4.9v-1.2h-4.9v-2h4.9v0v-1.2v-1.4v-1.2h-1.2H626.2z M612.1,1306.1h-1v-4.6h1V1306.1z M628.3,1317.2h-1.4v-4.1h1.4V1317.2z
			 M619.9,1301.4h1.2v4.6h-1.2V1301.4z M621,1314h-1.2v-6.8h1.2V1314z M615.3,1314v-5.5l2.7,5.5H615.3z M615.3,1315.2h2.3v2.6h-2.3
			V1315.2z M619,1323.8l-2.6-4.7h1.1h1.2v-1.2v-2.6h1.2v8.5H619z M628.3,1306.1h-3.7h-0.7h-0.5v11.7l-1.2-2.5v-8.1v-1.2v-1.4h6.1
			V1306.1z"/>
		<path class="st5" d="M629,1301.6c-0.3,0-0.5,0.2-0.5,0.5c0,0.3,0.2,0.5,0.5,0.5c0.3,0,0.5-0.2,0.5-0.5
			C629.5,1301.8,629.3,1301.6,629,1301.6 M629,1302.6c-0.3,0-0.5-0.2-0.5-0.4c0-0.3,0.2-0.5,0.5-0.5c0.3,0,0.5,0.1,0.5,0.4
			C629.5,1302.4,629.3,1302.6,629,1302.6"/>
		<path class="st5" d="M629.2,1302c0-0.1,0-0.2-0.2-0.2h-0.2v0.6h0.1v-0.2h0.1l0.1,0.2h0.1l-0.1-0.3
			C629.2,1302.1,629.2,1302.1,629.2,1302 M629,1302.1L629,1302.1l-0.1-0.2h0.1c0.1,0,0.1,0,0.1,0.1
			C629.1,1302.1,629.1,1302.1,629,1302.1"/>
	</g>
	<g id="Vrstva_12">
		<rect x="398.2" y="1173.5" class="st2" width="7.5" height="44.1"/>
		<rect x="551.8" y="1173.5" class="st2" width="7.5" height="31.8"/>
		<rect x="614.5" y="1173.5" class="st2" width="7.5" height="32.5"/>
		<rect x="646.3" y="1173.5" class="st2" width="7.5" height="329.6"/>
		<rect x="750" y="1173.5" class="st2" width="7.5" height="274.5"/>
		<rect x="565.1" y="1355.5" class="st2" width="7.5" height="149.2"/>
		<rect x="493.5" y="1305.9" class="st2" width="7.5" height="198.6"/>
		<rect x="700.5" y="1357.1" class="st2" width="7.5" height="295.4"/>
		<rect x="382.8" y="1267.8" class="st2" width="7.5" height="172.2"/>
		
			<rect x="336.3" y="1309.9" transform="matrix(6.123234e-17 -1 1 6.123234e-17 -1017.8295 1697.951)" class="st2" width="7.5" height="96"/>
		
			<rect x="664.9" y="1184.6" transform="matrix(6.123234e-17 -1 1 6.123234e-17 -689.1373 2026.3895)" class="st2" width="7.5" height="346.4"/>
		
			<rect x="670.9" y="1131.9" transform="matrix(6.123234e-17 -1 1 6.123234e-17 -534.3469 1883.6481)" class="st2" width="7.5" height="154.1"/>
		
			<rect x="702.2" y="1309.4" transform="matrix(6.123234e-17 -1 1 6.123234e-17 -680.5544 2092.4192)" class="st2" width="7.5" height="154.1"/>
		
			<rect x="742" y="1351.9" transform="matrix(6.123234e-17 -1 1 6.123234e-17 -702.3443 2193.7783)" class="st2" width="7.5" height="192.3"/>
		
			<rect x="547.1" y="1398.6" transform="matrix(6.123234e-17 -1 1 6.123234e-17 -950.6077 2052.3872)" class="st2" width="7.5" height="205.7"/>
		
			<rect x="468.7" y="1185.3" transform="matrix(0.7071 -0.7071 0.7071 0.7071 -771.3034 710.8647)" class="st2" width="7.5" height="202.3"/>
		
			<rect x="718.6" y="1471.2" transform="matrix(0.7071 -0.7071 0.7071 0.7071 -902.8135 972.3747)" class="st2" width="7.5" height="209.6"/>
		
			<rect x="414.3" y="1423.8" transform="matrix(0.7071 -0.7071 0.7071 0.7071 -916.9854 726.1599)" class="st2" width="7.5" height="92.3"/>
		
			<rect x="399.5" y="1227.6" transform="matrix(0.7071 0.7071 -0.7071 0.7071 1003.8823 81.7934)" class="st2" width="7.5" height="50.2"/>
		
			<rect x="511.6" y="1185.5" transform="matrix(0.7071 0.7071 -0.7071 0.7071 1030.5184 -0.1157)" class="st2" width="7.5" height="116.7"/>
		
			<rect x="545.2" y="1186.7" transform="matrix(0.7071 0.7071 -0.7071 0.7071 1051.1562 -19.3826)" class="st2" width="7.5" height="145"/>
		
			<rect x="396.5" y="1277.5" transform="matrix(6.123234e-17 -1 1 6.123234e-17 -893.2668 1693.7067)" class="st2" width="7.5" height="32"/>
		
			<rect x="425.7" y="1256.1" transform="matrix(0.7071 0.7071 -0.7071 0.7071 1029.9344 70.8101)" class="st2" width="7.5" height="45.1"/>
	</g>
</g>
</svg>
