<?xml version="1.0" encoding="utf-8"?>
<!-- Generator: Adobe Illustrator 28.0.0, SVG Export Plug-In . SVG Version: 6.00 Build 0)  -->
<svg version="1.1" xmlns="http://www.w3.org/2000/svg" xmlns:xlink="http://www.w3.org/1999/xlink" x="0px" y="0px"
	 viewBox="0 0 841.9 148.6" style="enable-background:new 0 0 841.9 148.6;" xml:space="preserve">
<style type="text/css">
	.st0{display:none;}
	.st1{display:inline;fill:#E5231E;stroke:#FFFFFF;stroke-width:33.2426;stroke-miterlimit:10;}
	.st2{fill:#FFFFFF;}
	.st3{fill:#592D2A;}
	.st4{fill:#E9D9CA;}
	.st5{fill:#592E2A;}
</style>
<g id="Vrstva_1" class="st0">
	<rect x="-3.9" y="-1813.6" class="st1" width="862.7" height="3410"/>
</g>
<g id="_x30_">
</g>
<g id="_x31_">
</g>
<g id="_x32_">
</g>
<g id="_x33_">
</g>
<g id="_x33__mid">
</g>
<g id="_x34_">
</g>
<g id="_x35_">
</g>
<g id="_x36_">
</g>
<g id="_x37_">
	<polygon class="st4" points="626.2,105.3 626.2,105.2 599.3,78.4 599.3,78.3 599.2,78.3 599.2,78.3 599.2,78.3 491.2,78.3 491.2,0 
		483.6,0 483.6,78.3 294.6,78.3 294.6,78.4 245.8,127.2 245.8,127.2 245.8,127.2 245.8,148.6 253.3,148.6 253.3,130.3 297.7,85.8 
		427.6,85.8 427.6,148.6 435.1,148.6 435.1,85.8 596.1,85.8 618.7,108.4 618.7,148.6 626.2,148.6 626.2,105.3 	"/>
</g>
<g id="_x38_">
</g>
<g id="_x39_">
	<g id="Vrstva_11">
	</g>
	<g id="Vrstva_12">
	</g>
</g>
</svg>
