<?xml version="1.0" encoding="utf-8"?>
<!-- Generator: Adobe Illustrator 28.0.0, SVG Export Plug-In . SVG Version: 6.00 Build 0)  -->
<svg version="1.1" xmlns="http://www.w3.org/2000/svg" xmlns:xlink="http://www.w3.org/1999/xlink" x="0px" y="0px"
	 viewBox="0 0 841.9 304.8" style="enable-background:new 0 0 841.9 304.8;" xml:space="preserve">
<style type="text/css">
	.st0{display:none;}
	.st1{display:inline;fill:#E5231E;stroke:#FFFFFF;stroke-width:33.2426;stroke-miterlimit:10;}
	.st2{fill:#FFFFFF;}
	.st3{fill:#592D2A;}
	.st4{fill:#E9D9CA;}
	.st5{fill:#592E2A;}
</style>
<g id="Vrstva_1" class="st0">
	<rect x="-3.9" y="-869.7" class="st1" width="862.7" height="3410"/>
</g>
<g id="_x30_">
	<g>
		<path class="st2" d="M360.6,23.8c0.5,0,1,0,1.5-0.1c0.2,0,0.5-0.1,0.7-0.1c4.1-0.5,6.4-2.3,8.8-5c1.2-1.3,2.9-4.1,3.5-5.7l0.7,0.3
			c0.5,0.2,0.6,0.3,0.6,0.5c0,0.2-0.2,0.8-1.1,2.6c-0.9,1.7-2,4-2,5.2c0,1.5,0.8,2.3,2.4,2.3c1.8,0,3.9-0.8,5.9-1.9
			c0.4,1.2,1.6,1.9,4.3,1.9c4.2,0,6.8-1,9.9-8.9l0.1-0.1l0.2,0c2.3-0.1,4.1-0.6,5.3-1.4c0.7,1,0.9,2.1,0.9,3.5
			c0,1.5-1.2,3.4-2.7,3.4c-0.2,0-0.3,0-0.4-0.1c0,0,0,0,0,0c0,0-0.1,0-0.1,0c0,0,0,0-0.1,0c0,0,0,0-0.1,0c-0.2-0.1-0.3-0.3-0.5-0.5
			c0,0,0,0,0,0c0-0.1-0.1-0.1-0.1-0.2c0,0,0,0,0,0c0-0.1-0.1-0.1-0.1-0.2c0,0,0-0.1,0-0.1c0,0,0-0.1,0-0.1c0,0,0-0.1,0-0.1
			c0-0.1,0-0.1-0.1-0.2c0,0,0,0,0-0.1c-0.1-0.3-0.1-0.7-0.2-1.1l0-0.1c0-0.1-0.2-0.2-0.3-0.1l-1.5,1.5c0,0,0,0.1,0,0.1v0.4
			c0,0.4,0.1,0.8,0.2,1.1c0,0.1,0,0.2,0.1,0.3c0,0,0,0.1,0,0.1c0,0.1,0,0.1,0.1,0.2c0.2,0.5,0.5,1,0.8,1.3c0,0,0.1,0.1,0.1,0.1
			c0,0,0.1,0.1,0.1,0.1c0.1,0.1,0.1,0.1,0.2,0.2c0,0,0.1,0.1,0.1,0.1c0,0,0.1,0,0.1,0.1c0,0,0,0,0,0c0.8,0.6,1.9,0.9,3,0.9l0,0h0
			c3.6,0,6.1-2,8.6-4.3c0.1,2.3,2.2,4.3,4.8,4.3c2.6,0,5.3-0.8,7.5-2.1c0.7,2.1,3.9,2.1,5.7,2.1c0.5,0,1,0,1.5-0.1
			c1.5-0.2,2.9-0.6,4.3-1.2c0.5,0.9,1.6,1.3,2.8,1.3c2.1,0,3.2-0.6,4.2-1.4c1.1,0.9,1.8,1.1,2.4,1.2c1.6,0.1,2.9,0,4-0.6l-1.2,2.6
			c-0.4,0.9-0.6,1.7-0.6,2.4c0,1.7,0.8,2.7,3.4,2.7c3.1,0,5.1-1,6.1-3.2l1-2.2c0.5-1.1,0.7-2,0.7-2.6c0-0.2,0-0.4-0.1-0.5
			c0.3,0.1,0.5,0.1,1.3,0.1c0.9,0,1.9-0.2,2.8-0.7c0.3,1.9,2.2,2.2,5.3,2.2c2.3,0,4.3-0.7,6-1.6c0,0,0.1,0,0.1-0.1l1.1-2.5
			c0.1-0.1-0.1-0.3-0.2-0.2c-1.9,1.2-4.3,1.9-6.5,2c-0.6,0-1.1,0.1-1.2-0.7c-0.1-0.7,0.5-1.6,0.9-2.8c2.5-0.1,6.4-0.6,7.9-2.5
			c1-1.4,1.5-3,1.5-4.1c0.1-1.5-0.9-2.2-4.5-2.2c-4.6,0.1-6.7,1.6-8.3,5.3l-1.2,2.6c-0.3,0.7-0.6,1.4-0.7,2
			c-0.9,0.6-1.7,0.9-2.3,0.9c-1,0-1.7-0.7-2-1.9c1.7-0.7,3.9-3.3,5-5.8l3.9-8.6c0.2-0.6,0.4-1.1,0.4-1.6c0-1.4-1.1-2.1-3.2-2.1
			c-3.7,0-5.7,0.9-7,3.8l-4.7,10.5l-2.4,5.3c-1,0.7-2,1.2-2.8,1.1c-1.1-0.1,0.3-2.6,0.4-3c0.1-0.2,3.4-7.8,3.4-7.8
			c0-0.1,0-0.2-0.1-0.2h-3.7c-0.1,0-0.1,0-0.1,0.1l-0.3,0.7c-0.5-0.8-1.1-1.4-2.9-1.4c-2.6,0-4.8,1.3-7.5,6.7
			c-0.9,1.7-1.4,3.3-1.6,4.5c-0.8,0.3-1.6,0.6-2.5,0.8c-1.2,0.3-2.2,0.3-2.7,0.3c-0.8,0-1.2-0.2-1.2-0.6c0-0.2,0.3-1,1.3-3.2
			l6.1-13.9c0.5-1.2,1-1.4,1.8-1.4c0.7,0,1,0.2,1,0.5c0,0.3-0.4,1.2-0.7,2c-0.1,0.1,0.1,0.2,0.2,0.2l5-1.8c0,0,0.1-0.1,0.1-0.1
			c0.1-0.3,0.2-0.8,0.2-1.1c0-1.6-1.5-2.1-4.7-2.1c-4.6,0-7.3,1.5-9.2,5.7l-4.4,9.8c-0.7,1.6-1.1,2.7-1.4,3.5
			c-0.9,0.8-1.7,1.1-2.7,1.4c1.2-1.2,1.7-2.1,1.7-4.3c0-1.3-0.9-3.1-2.7-5.5c2.1-1.9,2.4-3,2.4-3.8c0-1.3-0.8-1.7-2-1.7
			c-2.5,0-4.4,2.6-4.4,5.1c0,0.3,0,0.9,0.1,1.3l0.1,0.3c-1.4,1.4-2.8,2.7-3.7,3.6c-1.1,1-3.3,3-4.6,4c0,0,1.5-1.6,1.4-3.5
			c0-1.1-0.6-2.7-2.7-5.3c2.1-1.9,2.4-3,2.4-3.9c0-1.3-0.8-1.7-2-1.7c-2.5,0-4.4,2.6-4.4,5.1c0,0.3,0,0.7,0.1,1
			c-1.2,0.7-2.8,1-3.6,1c-0.2,0-0.3,0-0.5-0.1c0.4-0.9,0.6-1.6,0.6-2.2c0-1.1-0.7-1.8-2.2-1.8c-1.2,0-2.2,0.4-3,1.1
			c-0.3-0.1-0.6-0.1-1.4-0.1c-2.6,0-4.8,1.3-6.7,5.4l-1.6,3.4c-0.2,0.5-0.4,0.9-0.5,1.4c-0.7,0.4-1.4,0.7-2,0.7
			c-0.3,0-0.5-0.1-0.5-0.5c0-1.5,2-4.3,2-5.3c0-0.4-0.3-0.9-0.9-1.3l-8.1-4.8c-0.1,0-0.2,0-0.2,0.1c-0.7,1.9-1.4,4.2-2.4,6
			c-1.3,2.5-2.1,4.9-4.6,6.3c-0.4,0.2-1.2,0.5-1.9,0.6c-1.1,0.2-1.9,0.2-2.4,0.2c-0.8,0-1.2-0.2-1.2-0.6c0-0.2,0.3-1,1.3-3.2
			l6.1-13.9c0.5-1.2,1-1.4,1.8-1.4c0.7,0,1,0.2,1,0.5c0,0.3-0.4,1.2-0.7,2c-0.1,0.1,0.1,0.2,0.2,0.2l5-1.8c0,0,0.1-0.1,0.1-0.1
			c0.1-0.3,0.2-0.8,0.2-1.1c0-1.6-1.5-2.1-4.7-2.1c-4.6,0-7.3,1.5-9.2,5.7l-4.4,9.8c-1.4,3.2-1.7,4.3-1.7,5.2
			C354.7,23.7,358.6,23.8,360.6,23.8z M467.9,12.6c0.1-0.2,0.5-1,1.4-1c0.5,0,0.8,0.2,0.9,0.6c0,0.2,0,0.5-0.1,0.8l-0.4,0.9
			c-0.8,1.7-1.8,1.8-2.5,1.8c-0.1,0-0.1,0-0.2,0c0,0-0.1,0-0.1,0h-0.3L467.9,12.6z M460.7,3.2c0.2-0.4,0.5-0.6,1-0.6
			c0.2,0,0.4,0,0.5,0.1c0.1,0.1,0.1,0.2,0.1,0.4c0,0,0,0,0,0.1c0,0.1,0,0.3-0.1,0.4l-4,8.8c-1,2.1-1.8,2.7-2.6,3.1l-0.6,0.3
			L460.7,3.2z M450.2,26.7c0.1-0.3,0.3-0.7,0.5-1c0.3-0.7,0.6-1.5,1-2.2l1-2.2c0.1-0.3,0.3-0.7,0.4-1l0.2,0.1c0.7,0.5,0.3,1.7,0.3,2
			c-0.1,0.7-0.4,1.4-0.6,2l-1.2,2.8c-0.3,0.6-0.7,0.8-1.3,0.8c-0.2,0-0.4-0.1-0.4-0.3C449.9,27.4,450.1,27,450.2,26.7z M437.7,19.3
			l2.9-6.5c0.3-0.7,0.7-1.3,1.6-1.3c0.6,0,0.8,0.4,0.8,0.7c0,0.5-0.3,0.9-0.5,1.4c-0.3,0.6-0.5,1.1-0.8,1.7l-0.9,2
			c-0.2,0.5-0.5,1.1-0.7,1.7l-0.3,0.7c-0.4,0.8-0.7,1.6-1.7,1.6c-0.5,0-0.8-0.3-0.8-0.8C437.4,20.2,437.5,19.8,437.7,19.3z
			 M417.9,7.2c0.2,0,0.3,0.1,0.3,0.3c0,0.4-0.2,0.8-1.1,1.5c-0.1-0.2-0.1-0.7-0.1-0.8C417.1,7.6,417.3,7.2,417.9,7.2z M415,13.9
			c0.4,0.8,0.6,1.8,0.6,3c0,1.5-1.2,3.4-2.7,3.4c-0.9,0-1.5-1-1.6-2.5C412.3,16.6,413.9,15,415,13.9z M403.8,7.6
			c0-0.1,0.1-0.2,0.2-0.3l0,0c0,0,0,0,0,0c0,0,0.1,0,0.1-0.1c0.1,0,0.2-0.1,0.4-0.1c0.1,0,0.1,0,0.1,0c0,0,0.1,0,0.1,0.1
			c0.1,0.1,0.1,0.1,0.1,0.3c0,0.2,0,0.5-0.3,0.8c-0.2,0.2-0.4,0.4-0.8,0.6c0-0.2-0.1-0.6-0.1-0.8C403.7,8,403.7,7.8,403.8,7.6z
			 M394.4,10.3c0.4,0,0.5,0.3,0.5,0.8c0,0.3-0.1,0.8-0.3,1c-0.7,0-1.1-0.3-1.1-1C393.6,10.5,393.8,10.3,394.4,10.3z M386.7,19.3
			l2.9-6.5c0.3-0.6,0.6-1.2,1.5-1.3c0,0.4,0.1,0.8,0.3,1.2c0.1,0.2,0.2,0.3,0.3,0.5c-0.1,0.1-0.1,0.3-0.2,0.4
			c-0.3,0.6-0.5,1.1-0.8,1.7c-0.3,0.7-0.6,1.3-0.9,2c-0.2,0.5-0.5,1.1-0.7,1.7c-0.1,0.2-0.2,0.5-0.3,0.7c-0.4,0.8-0.7,1.6-1.7,1.6
			c-0.5,0-0.8-0.3-0.8-0.8C386.3,20.2,386.5,19.8,386.7,19.3z"/>
		<path class="st2" d="M458.8,53.3l32.3-38.1l-5.8-4.9l-31,36.6V32.5h-7.6v20.7h-13.2V40.1v-7.6H426h-7.4H411v7.6v29.3v7.6v34.2
			l-17.1-34.2h9.1v-2.1v-5.5V40.1v-7.6h-7.6h-18.7h-7.6h-6.5h-7.6h-16.6v7.6h16.6v79.8h7.6v-43h14V76v-6.6V40.1h18.7v29.3h-5.9v0
			h-7.6v31.8l-26.9,34.6v53.3h7.6v-50.7l19.4-24.9v75.6h7.6v-34.9l18.8,34.6v0.3h10.5h7.6v-7.6v-50.7l29.2,58.3h7.6v-41.3h9v157h7.6
			V107h-0.7h-6.9h-9h-7h-0.6v65.3l-6.7-13.5V96.9h30.8v-7.6h-30.8V76.9h30.8v-0.2v-7.3v-8.6v-7.6h-7.6H458.8z M369.2,69.4h-6.5V40.1
			h6.5V69.4z M389.6,85.2l17.4,34.7h-17.4V85.2z M389.6,127.5h14.3v16.7h-14.3V127.5z M418.9,181.6h-5.9l-16.2-29.9h7.1h7.6v-7.6
			v-16.7h7.5V181.6z M426,119.9h-7.4v-43h7.4V119.9z M426,69.4h-7.4V40.1h7.4V69.4z M463.2,114.5h9v25.7h-9V114.5z M472.2,69.4
			h-23.3h-4.7h-2.9v74.3l-7.8-15.6V76.9v-7.6v-8.6h38.6V69.4z"/>
		<path class="st2" d="M476.5,41.3c-1.8,0-3.3,1.2-3.3,3.3c0,1.8,1.1,3.2,3.3,3.2c1.9,0,3.3-1.3,3.3-3.3
			C479.8,42.5,478.5,41.3,476.5,41.3z M476.5,47.5c-1.8,0-2.9-1.1-2.9-2.8c0-1.8,1.3-2.9,2.9-2.9c1.7,0,2.9,0.9,2.9,2.8
			C479.4,46.3,478.2,47.5,476.5,47.5z"/>
		<path class="st2" d="M477.7,43.8c0-0.5-0.2-1-1.2-1h-1v3.6h0.4v-1.5h0.8l0.9,1.5h0.4l-0.9-1.6C477.5,44.6,477.7,44.2,477.7,43.8z
			 M476.4,44.5h-0.5v-1.3h0.5c0.6,0,0.9,0.2,0.9,0.6C477.3,44.3,477,44.5,476.4,44.5z"/>
	</g>
</g>
<g id="_x31_">
</g>
<g id="_x32_">
</g>
<g id="_x33_">
</g>
<g id="_x33__mid">
</g>
<g id="_x34_">
</g>
<g id="_x35_">
</g>
<g id="_x36_">
</g>
<g id="_x37_">
</g>
<g id="_x38_">
</g>
<g id="_x39_">
	<g id="Vrstva_11">
	</g>
	<g id="Vrstva_12">
	</g>
</g>
</svg>
