<?xml version="1.0" encoding="utf-8"?>
<!-- Generator: Adobe Illustrator 28.0.0, SVG Export Plug-In . SVG Version: 6.00 Build 0)  -->
<svg version="1.1" xmlns="http://www.w3.org/2000/svg" xmlns:xlink="http://www.w3.org/1999/xlink" x="0px" y="0px"
	 viewBox="0 0 841.9 479.3" style="enable-background:new 0 0 841.9 479.3;" xml:space="preserve">
<style type="text/css">
	.st0{display:none;}
	.st1{display:inline;fill:#E5231E;stroke:#FFFFFF;stroke-width:33.2426;stroke-miterlimit:10;}
	.st2{fill:#FFFFFF;}
	.st3{fill:#592D2A;}
	.st4{fill:#E9D9CA;}
	.st5{fill:#592E2A;}
</style>
<g id="Vrstva_1" class="st0">
	<rect x="-3.9" y="-2043.2" class="st1" width="862.7" height="3410"/>
</g>
<g id="_x30_">
</g>
<g id="_x31_">
</g>
<g id="_x32_">
</g>
<g id="_x33_">
</g>
<g id="_x33__mid">
</g>
<g id="_x34_">
</g>
<g id="_x35_">
</g>
<g id="_x36_">
</g>
<g id="_x37_">
</g>
<g id="_x38_">
</g>
<g id="_x39_">
	<g id="Vrstva_11">
		<polygon class="st4" points="637.9,160.2 637.9,160.2 637.9,116.4 601.1,116.4 601.1,160.2 621.8,160.2 637.9,176.3 		"/>
		<g>
			<path class="st5" d="M610.7,125.4c0.1,0,0.2,0,0.2,0c0,0,0.1,0,0.1,0c0.7-0.1,1-0.4,1.4-0.8c0.2-0.2,0.5-0.6,0.6-0.9l0.1,0
				c0.1,0,0.1,0.1,0.1,0.1c0,0,0,0.1-0.2,0.4c-0.1,0.3-0.3,0.6-0.3,0.8c0,0.2,0.1,0.4,0.4,0.4c0.3,0,0.6-0.1,0.9-0.3
				c0.1,0.2,0.3,0.3,0.7,0.3c0.7,0,1.1-0.2,1.6-1.4l0,0l0,0c0.4,0,0.6-0.1,0.8-0.2c0.1,0.2,0.1,0.3,0.1,0.5c0,0.2-0.2,0.5-0.4,0.5
				c0,0,0,0-0.1,0c0,0,0,0,0,0c0,0,0,0,0,0c0,0,0,0,0,0c0,0,0,0,0,0c0,0-0.1,0-0.1-0.1c0,0,0,0,0,0l0,0c0,0,0,0,0,0c0,0,0,0,0,0
				c0,0,0,0,0,0c0,0,0,0,0,0c0,0,0,0,0,0c0,0,0,0,0,0c0,0,0,0,0,0c0-0.1,0-0.1,0-0.2v0c0,0,0,0,0,0l-0.2,0.2c0,0,0,0,0,0v0.1
				c0,0.1,0,0.1,0,0.2c0,0,0,0,0,0c0,0,0,0,0,0c0,0,0,0,0,0c0,0.1,0.1,0.2,0.1,0.2c0,0,0,0,0,0c0,0,0,0,0,0c0,0,0,0,0,0c0,0,0,0,0,0
				c0,0,0,0,0,0c0,0,0,0,0,0c0.1,0.1,0.3,0.1,0.5,0.1v0h0c0.6,0,1-0.3,1.4-0.7c0,0.4,0.3,0.7,0.8,0.7c0.4,0,0.8-0.1,1.2-0.3
				c0.1,0.3,0.6,0.3,0.9,0.3c0.1,0,0.2,0,0.2,0c0.2,0,0.5-0.1,0.7-0.2c0.1,0.1,0.2,0.2,0.4,0.2c0.3,0,0.5-0.1,0.7-0.2
				c0.2,0.1,0.3,0.2,0.4,0.2c0.2,0,0.5,0,0.6-0.1l-0.2,0.4c-0.1,0.1-0.1,0.3-0.1,0.4c0,0.3,0.1,0.4,0.5,0.4c0.5,0,0.8-0.2,1-0.5
				l0.2-0.3c0.1-0.2,0.1-0.3,0.1-0.4c0,0,0-0.1,0-0.1c0,0,0.1,0,0.2,0c0.1,0,0.3,0,0.4-0.1c0,0.3,0.3,0.3,0.8,0.3
				c0.4,0,0.7-0.1,1-0.3c0,0,0,0,0,0l0.2-0.4c0,0,0,0,0,0c-0.3,0.2-0.7,0.3-1,0.3c-0.1,0-0.2,0-0.2-0.1c0-0.1,0.1-0.3,0.1-0.4
				c0.4,0,1-0.1,1.2-0.4c0.2-0.2,0.2-0.5,0.2-0.6c0-0.2-0.1-0.4-0.7-0.3c-0.7,0-1.1,0.3-1.3,0.8l-0.2,0.4c-0.1,0.1-0.1,0.2-0.1,0.3
				c-0.1,0.1-0.3,0.1-0.4,0.1c-0.2,0-0.3-0.1-0.3-0.3c0.3-0.1,0.6-0.5,0.8-0.9l0.6-1.4c0-0.1,0.1-0.2,0.1-0.3c0-0.2-0.2-0.3-0.5-0.3
				c-0.6,0-0.9,0.2-1.1,0.6l-0.7,1.7l-0.4,0.8c-0.2,0.1-0.3,0.2-0.4,0.2c-0.2,0,0-0.4,0.1-0.5c0,0,0.5-1.2,0.5-1.2c0,0,0,0,0,0h-0.6
				c0,0,0,0,0,0l0,0.1c-0.1-0.1-0.2-0.2-0.5-0.2c-0.4,0-0.8,0.2-1.2,1.1c-0.1,0.3-0.2,0.5-0.2,0.7c-0.1,0.1-0.3,0.1-0.4,0.1
				c-0.2,0-0.3,0-0.4,0c-0.1,0-0.2,0-0.2-0.1c0,0,0-0.2,0.2-0.5l1-2.2c0.1-0.2,0.2-0.2,0.3-0.2c0.1,0,0.2,0,0.2,0.1
				c0,0.1-0.1,0.2-0.1,0.3c0,0,0,0,0,0l0.8-0.3c0,0,0,0,0,0c0-0.1,0-0.1,0-0.2c0-0.2-0.2-0.3-0.7-0.3c-0.7,0-1.1,0.2-1.4,0.9
				l-0.7,1.5c-0.1,0.3-0.2,0.4-0.2,0.6c-0.1,0.1-0.3,0.2-0.4,0.2c0.2-0.2,0.3-0.3,0.3-0.7c0-0.2-0.1-0.5-0.4-0.9
				c0.3-0.3,0.4-0.5,0.4-0.6c0-0.2-0.1-0.3-0.3-0.3c-0.4,0-0.7,0.4-0.7,0.8c0,0,0,0.1,0,0.2l0,0c-0.2,0.2-0.4,0.4-0.6,0.6
				c-0.2,0.2-0.5,0.5-0.7,0.6c0,0,0.2-0.3,0.2-0.5c0-0.2-0.1-0.4-0.4-0.8c0.3-0.3,0.4-0.5,0.4-0.6c0-0.2-0.1-0.3-0.3-0.3
				c-0.4,0-0.7,0.4-0.7,0.8c0,0,0,0.1,0,0.2c-0.2,0.1-0.4,0.2-0.6,0.2c0,0,0,0-0.1,0c0.1-0.1,0.1-0.3,0.1-0.4c0-0.2-0.1-0.3-0.4-0.3
				c-0.2,0-0.3,0.1-0.5,0.2c0,0-0.1,0-0.2,0c-0.4,0-0.8,0.2-1.1,0.9l-0.2,0.5c0,0.1-0.1,0.1-0.1,0.2c-0.1,0.1-0.2,0.1-0.3,0.1
				c-0.1,0-0.1,0-0.1-0.1c0-0.2,0.3-0.7,0.3-0.8c0-0.1,0-0.1-0.1-0.2l-1.3-0.8c0,0,0,0,0,0c-0.1,0.3-0.2,0.7-0.4,0.9
				c-0.2,0.4-0.3,0.8-0.7,1c-0.1,0-0.2,0.1-0.3,0.1c-0.2,0-0.3,0-0.4,0c-0.1,0-0.2,0-0.2-0.1c0,0,0-0.2,0.2-0.5l1-2.2
				c0.1-0.2,0.2-0.2,0.3-0.2c0.1,0,0.2,0,0.2,0.1c0,0.1-0.1,0.2-0.1,0.3c0,0,0,0,0,0l0.8-0.3c0,0,0,0,0,0c0-0.1,0-0.1,0-0.2
				c0-0.2-0.2-0.3-0.7-0.3c-0.7,0-1.1,0.2-1.4,0.9l-0.7,1.5c-0.2,0.5-0.3,0.7-0.3,0.8C609.8,125.4,610.4,125.4,610.7,125.4z
				 M627.7,123.6c0,0,0.1-0.2,0.2-0.2c0.1,0,0.1,0,0.1,0.1c0,0,0,0.1,0,0.1l-0.1,0.1c-0.1,0.3-0.3,0.3-0.4,0.3h0h0h0L627.7,123.6z
				 M626.5,122.1c0-0.1,0.1-0.1,0.2-0.1c0,0,0.1,0,0.1,0c0,0,0,0,0,0.1v0c0,0,0,0,0,0.1l-0.6,1.4c-0.2,0.3-0.3,0.4-0.4,0.5l-0.1,0
				L626.5,122.1z M624.9,125.8c0-0.1,0-0.1,0.1-0.2c0.1-0.1,0.1-0.2,0.2-0.3l0.2-0.3c0-0.1,0-0.1,0.1-0.2l0,0c0.1,0.1,0,0.3,0,0.3
				c0,0.1-0.1,0.2-0.1,0.3l-0.2,0.4c0,0.1-0.1,0.1-0.2,0.1c0,0-0.1,0-0.1,0C624.8,125.9,624.8,125.9,624.9,125.8z M622.9,124.7
				l0.5-1c0-0.1,0.1-0.2,0.2-0.2c0.1,0,0.1,0.1,0.1,0.1c0,0.1,0,0.1-0.1,0.2c0,0.1-0.1,0.2-0.1,0.3c0,0.1-0.1,0.2-0.1,0.3
				c0,0.1-0.1,0.2-0.1,0.3c0,0,0,0.1,0,0.1c-0.1,0.1-0.1,0.3-0.3,0.3c-0.1,0-0.1-0.1-0.1-0.1C622.8,124.8,622.9,124.7,622.9,124.7z
				 M619.8,122.8C619.8,122.8,619.8,122.8,619.8,122.8c0,0.1,0,0.2-0.1,0.3c0,0,0-0.1,0-0.1C619.6,122.8,619.7,122.8,619.8,122.8z
				 M619.3,123.8c0.1,0.1,0.1,0.3,0.1,0.5c0,0.2-0.2,0.5-0.4,0.5c-0.1,0-0.2-0.2-0.3-0.4C618.9,124.2,619.1,124,619.3,123.8z
				 M617.5,122.8C617.5,122.8,617.6,122.8,617.5,122.8L617.5,122.8L617.5,122.8C617.6,122.8,617.6,122.8,617.5,122.8
				c0.1-0.1,0.1-0.1,0.1-0.1c0,0,0,0,0,0c0,0,0,0,0,0c0,0,0,0,0,0c0,0,0,0.1,0,0.1c0,0-0.1,0.1-0.1,0.1
				C617.5,123,617.5,122.9,617.5,122.8C617.5,122.9,617.5,122.8,617.5,122.8z M616.1,123.2c0.1,0,0.1,0.1,0.1,0.1c0,0.1,0,0.1,0,0.2
				c-0.1,0-0.2,0-0.2-0.2C615.9,123.3,616,123.2,616.1,123.2z M614.8,124.7l0.5-1c0-0.1,0.1-0.2,0.2-0.2c0,0.1,0,0.1,0.1,0.2
				c0,0,0,0.1,0.1,0.1c0,0,0,0,0,0.1l-0.1,0.3c0,0.1-0.1,0.2-0.1,0.3c0,0.1-0.1,0.2-0.1,0.3c0,0,0,0.1,0,0.1
				c-0.1,0.1-0.1,0.3-0.3,0.3c-0.1,0-0.1-0.1-0.1-0.1C614.8,124.8,614.8,124.7,614.8,124.7z"/>
			<path class="st5" d="M626.2,130l5.1-6l-0.9-0.8l-4.9,5.8v-2.3h-1.2v3.3h-2.1v-2.1v-1.2H621h-1.2h-1.2v1.2v4.6v1.2v5.4l-2.7-5.4
				h1.4v-0.3v-0.9v-4.6v-1.2h-1.2h-3h-1.2h-1h-1.2h-2.6v1.2h2.6v12.6h1.2v-6.8h2.2v-0.1v-1v-4.6h3v4.6h-0.9h-1.2v5l-4.2,5.5v8.4h1.2
				v-8l3.1-3.9v11.9h1.2V146l3,5.5v0h1.7h1.2v-1.2v-8l4.6,9.2h1.2v-6.5h1.4v9.2h1.2v-15.6h-0.1h-1.1h-1.4h-1.1h-0.1v10.3l-1.1-2.1
				v-9.8h4.9v-1.2h-4.9v-2h4.9v0v-1.2v-1.4V130h-1.2H626.2z M612.1,132.6h-1v-4.6h1V132.6z M615.3,135.1l2.7,5.5h-2.7V135.1z
				 M615.3,141.7h2.3v2.6h-2.3V141.7z M619.9,150.3H619l-2.6-4.7h1.1h1.2v-1.2v-2.6h1.2V150.3z M621,140.5h-1.2v-6.8h1.2V140.5z
				 M621,132.6h-1.2v-4.6h1.2V132.6z M626.9,139.7h1.4v4.1h-1.4V139.7z M628.3,132.6h-3.7h-0.7h-0.5v11.7l-1.2-2.5v-8.1v-1.2v-1.4
				h6.1V132.6z"/>
			<path class="st5" d="M629,128.1c-0.3,0-0.5,0.2-0.5,0.5c0,0.3,0.2,0.5,0.5,0.5c0.3,0,0.5-0.2,0.5-0.5
				C629.5,128.3,629.3,128.1,629,128.1z M629,129.1c-0.3,0-0.5-0.2-0.5-0.4c0-0.3,0.2-0.5,0.5-0.5c0.3,0,0.5,0.1,0.5,0.4
				C629.5,128.9,629.3,129.1,629,129.1z"/>
			<path class="st5" d="M629.2,128.5c0-0.1,0-0.2-0.2-0.2h-0.2v0.6h0.1v-0.2h0.1l0.1,0.2h0.1l-0.1-0.3
				C629.2,128.7,629.2,128.6,629.2,128.5z M629,128.6L629,128.6l-0.1-0.2h0.1c0.1,0,0.1,0,0.1,0.1
				C629.1,128.6,629.1,128.6,629,128.6z"/>
		</g>
	</g>
	<g id="Vrstva_12">
		<path class="st2" d="M841.9,278.3v-7.5h-84.4v-54.1H783v-7.5h-25.5V188h84.3v-7.5h-84.3V0H750v31.8h-96.2V0h-7.5v31.8H622V0h-7.5
			v31.8h-16.9v0L497.1,132.3l-19.1-19.1l81.4-81.4l0,0h0V0h-7.5v28.7l-79.2,79.2L405.8,41V0h-7.5v44.1h0l0,0l17.4,17.4l-32.8,32.8h0
			v86.3h-90.7v7.5h90.7v78.4h0l0,0l65.2,65.2v0h198.3l54.2,54.2v93h7.5v-85.5l85.8,85.8l5.3-5.3L708,382.9V278.3H841.9z M750,270.8
			h-42v-54.1h42V270.8z M416.2,123.8L416.2,123.8L416.2,123.8L447,92.9l46.4,46.4v184.9h-42.3l-60.8-60.8V123.8H416.2z M501,146.8
			l33.7,33.7H501V146.8z M501,188h64.1v136.2H501V188z M572.6,188h73.7v21.2h-17.4v7.5h17.4v107.5h-73.7V188z M653.8,188h46.7v21.2
			h-46.7V188z M653.8,216.8h46.7v54.1h-46.7V216.8z M750,209.2h-42V188h42V209.2z M750,39.3v141.3h-96.2V39.3H750z M646.3,180.5
			h-101l-42.9-42.9l98.3-98.3h45.6V180.5z M441.7,87.6l-28.6,28.6h-22.8V97.4l30.6-30.6L441.7,87.6z M700.5,375.3l-46.7-46.7v-50.3
			h46.7V375.3z"/>
	</g>
</g>
</svg>
