<?xml version="1.0" encoding="utf-8"?>
<!-- Generator: Adobe Illustrator 28.0.0, SVG Export Plug-In . SVG Version: 6.00 Build 0)  -->
<svg version="1.1" id="Vrstva_1" xmlns="http://www.w3.org/2000/svg" xmlns:xlink="http://www.w3.org/1999/xlink" x="0px" y="0px"
	 viewBox="0 0 152.8 305" style="enable-background:new 0 0 152.8 305;" xml:space="preserve">
<style type="text/css">
	.st0{fill:#FFFFFF;}
</style>
<g>
	<path class="st0" d="M22.1,23.9c0.5,0,1,0,1.5-0.1c0.2,0,0.5-0.1,0.7-0.1c4.1-0.5,6.4-2.3,8.8-5c1.2-1.3,2.9-4.1,3.5-5.7l0.7,0.3
		c0.5,0.2,0.6,0.3,0.6,0.5c0,0.2-0.2,0.8-1.1,2.6c-0.9,1.7-2,4-2,5.2c0,1.5,0.8,2.3,2.4,2.3c1.8,0,3.9-0.8,5.9-1.9
		c0.4,1.2,1.6,1.9,4.3,1.9c4.2,0,6.8-1,9.9-8.9l0.1-0.1l0.2,0c2.3-0.1,4.1-0.6,5.3-1.4c0.7,1,0.9,2.1,0.9,3.5c0,1.5-1.2,3.4-2.7,3.4
		c-0.2,0-0.3,0-0.4-0.1c0,0,0,0,0,0c0,0-0.1,0-0.1,0c0,0,0,0-0.1,0c0,0,0,0-0.1,0c-0.2-0.1-0.3-0.3-0.5-0.5c0,0,0,0,0,0
		c0-0.1-0.1-0.1-0.1-0.2c0,0,0,0,0,0c0-0.1-0.1-0.1-0.1-0.2c0,0,0-0.1,0-0.1c0,0,0-0.1,0-0.1c0,0,0-0.1,0-0.1c0-0.1,0-0.1-0.1-0.2
		c0,0,0,0,0-0.1c-0.1-0.3-0.1-0.7-0.2-1.1l0-0.1c0-0.1-0.2-0.2-0.3-0.1l-1.5,1.5c0,0,0,0.1,0,0.1v0.4c0,0.4,0.1,0.8,0.2,1.1
		c0,0.1,0,0.2,0.1,0.3c0,0,0,0.1,0,0.1c0,0.1,0,0.1,0.1,0.2c0.2,0.5,0.5,1,0.8,1.3c0,0,0.1,0.1,0.1,0.1c0,0,0.1,0.1,0.1,0.1
		c0.1,0.1,0.1,0.1,0.2,0.2c0,0,0.1,0.1,0.1,0.1c0,0,0.1,0,0.1,0.1c0,0,0,0,0,0c0.8,0.6,1.9,0.9,3,0.9l0,0h0c3.6,0,6.1-2,8.6-4.3
		c0.1,2.3,2.2,4.3,4.8,4.3c2.6,0,5.3-0.8,7.5-2.1c0.7,2.1,3.9,2.1,5.7,2.1c0.5,0,1,0,1.5-0.1c1.5-0.2,2.9-0.6,4.3-1.2
		c0.5,0.9,1.6,1.3,2.8,1.3c2.1,0,3.2-0.6,4.2-1.4c1.1,0.9,1.8,1.1,2.4,1.2c1.6,0.1,2.9,0,4-0.6l-1.2,2.6c-0.4,0.9-0.6,1.7-0.6,2.4
		c0,1.7,0.8,2.7,3.4,2.7c3.1,0,5.1-1,6.1-3.2l1-2.2c0.5-1.1,0.7-2,0.7-2.6c0-0.2,0-0.4-0.1-0.5c0.3,0.1,0.5,0.1,1.3,0.1
		c0.9,0,1.9-0.2,2.8-0.7c0.3,1.9,2.2,2.2,5.3,2.2c2.3,0,4.3-0.7,6-1.6c0,0,0.1,0,0.1-0.1l1.1-2.5c0.1-0.1-0.1-0.3-0.2-0.2
		c-1.9,1.2-4.3,1.9-6.5,2c-0.6,0-1.1,0.1-1.2-0.7c-0.1-0.7,0.5-1.6,0.9-2.8c2.5-0.1,6.4-0.6,7.9-2.5c1-1.4,1.5-3,1.5-4.1
		c0.1-1.5-0.9-2.2-4.5-2.2c-4.6,0.1-6.7,1.6-8.3,5.3l-1.2,2.6c-0.3,0.7-0.6,1.4-0.7,2c-0.9,0.6-1.7,0.9-2.3,0.9c-1,0-1.7-0.7-2-1.9
		c1.7-0.7,3.9-3.3,5-5.8l3.9-8.6c0.2-0.6,0.4-1.1,0.4-1.6c0-1.4-1.1-2.1-3.2-2.1c-3.7,0-5.7,0.9-7,3.8l-4.7,10.5l-2.4,5.3
		c-1,0.7-2,1.2-2.8,1.1c-1.1-0.1,0.3-2.6,0.4-3c0.1-0.2,3.4-7.8,3.4-7.8c0-0.1,0-0.2-0.1-0.2h-3.7c-0.1,0-0.1,0-0.1,0.1l-0.3,0.7
		c-0.5-0.8-1.1-1.4-2.9-1.4c-2.6,0-4.8,1.3-7.5,6.7c-0.9,1.7-1.4,3.3-1.6,4.5c-0.8,0.3-1.6,0.6-2.5,0.8c-1.2,0.3-2.2,0.3-2.7,0.3
		c-0.8,0-1.2-0.2-1.2-0.6c0-0.2,0.3-1,1.3-3.2L95.4,4c0.5-1.2,1-1.4,1.8-1.4c0.7,0,1,0.2,1,0.5c0,0.3-0.4,1.2-0.7,2
		c-0.1,0.1,0.1,0.2,0.2,0.2l5-1.8c0,0,0.1-0.1,0.1-0.1C103,3,103,2.5,103,2.2c0-1.6-1.5-2.1-4.7-2.1c-4.6,0-7.3,1.5-9.1,5.7
		l-4.4,9.8c-0.7,1.6-1.1,2.7-1.4,3.5c-0.9,0.8-1.7,1.1-2.7,1.4c1.2-1.2,1.7-2.1,1.7-4.3c0-1.3-0.9-3.1-2.7-5.5C81.8,8.9,82,7.8,82,7
		c0-1.3-0.8-1.7-2-1.7c-2.5,0-4.4,2.6-4.4,5.1c0,0.3,0,0.9,0.1,1.3l0.1,0.3c-1.4,1.4-2.8,2.7-3.7,3.6c-1.1,1-3.3,3-4.6,4
		c0,0,1.5-1.6,1.4-3.5c0-1.1-0.6-2.7-2.7-5.3c2.1-1.9,2.4-3,2.4-3.9c0-1.3-0.8-1.7-2-1.7c-2.5,0-4.4,2.6-4.4,5.1c0,0.3,0,0.7,0.1,1
		c-1.2,0.7-2.8,1-3.6,1c-0.2,0-0.3,0-0.5-0.1c0.4-0.9,0.6-1.6,0.6-2.2c0-1.1-0.7-1.8-2.2-1.8c-1.2,0-2.2,0.4-3,1.1
		c-0.3-0.1-0.6-0.1-1.4-0.1c-2.6,0-4.8,1.3-6.7,5.4l-1.6,3.4c-0.2,0.5-0.4,0.9-0.5,1.4c-0.7,0.4-1.4,0.7-2,0.7
		c-0.3,0-0.5-0.1-0.5-0.5c0-1.5,2-4.3,2-5.3c0-0.4-0.3-0.9-0.9-1.3l-8.1-4.8c-0.1,0-0.2,0-0.2,0.1c-0.7,1.9-1.4,4.2-2.4,6
		c-1.3,2.5-2.1,4.9-4.6,6.3c-0.4,0.2-1.2,0.5-1.9,0.6c-1.1,0.2-1.9,0.2-2.4,0.2c-0.8,0-1.2-0.2-1.2-0.6c0-0.2,0.3-1,1.3-3.2L28.6,4
		c0.5-1.2,1-1.4,1.8-1.4c0.7,0,1,0.2,1,0.5c0,0.3-0.4,1.2-0.7,2c-0.1,0.1,0.1,0.2,0.2,0.2l5-1.8c0,0,0.1-0.1,0.1-0.1
		c0.1-0.3,0.2-0.8,0.2-1.1c0-1.6-1.5-2.1-4.7-2.1c-4.6,0-7.3,1.5-9.1,5.7L18,15.6c-1.4,3.2-1.7,4.3-1.7,5.2
		C16.3,23.8,20.1,23.9,22.1,23.9 M129.5,12.7c0.1-0.2,0.5-1,1.4-1c0.5,0,0.8,0.2,0.9,0.6c0,0.2,0,0.5-0.1,0.8l-0.4,0.9
		c-0.8,1.7-1.8,1.8-2.5,1.8c-0.1,0-0.1,0-0.2,0c0,0-0.1,0-0.1,0h-0.3L129.5,12.7z M122.2,3.3c0.2-0.4,0.5-0.6,1-0.6
		c0.2,0,0.4,0,0.5,0.1c0.1,0.1,0.1,0.2,0.1,0.4c0,0,0,0,0,0.1c0,0.1,0,0.3-0.1,0.4l-4,8.8c-1,2.1-1.8,2.7-2.6,3.1l-0.6,0.3
		L122.2,3.3z M111.7,26.8c0.1-0.3,0.3-0.7,0.5-1c0.3-0.7,0.6-1.5,1-2.2l1-2.2c0.1-0.3,0.3-0.7,0.4-1l0.2,0.1c0.7,0.5,0.3,1.7,0.3,2
		c-0.1,0.7-0.4,1.4-0.6,2l-1.2,2.8c-0.3,0.6-0.7,0.8-1.3,0.8c-0.2,0-0.4-0.1-0.4-0.3C111.4,27.5,111.6,27.1,111.7,26.8 M99.3,19.4
		l2.9-6.5c0.3-0.7,0.7-1.3,1.6-1.3c0.6,0,0.8,0.4,0.8,0.7c0,0.5-0.3,0.9-0.5,1.4c-0.3,0.6-0.5,1.1-0.8,1.7l-0.9,2
		c-0.2,0.5-0.5,1.1-0.7,1.7l-0.3,0.7c-0.4,0.8-0.7,1.6-1.7,1.6c-0.5,0-0.8-0.3-0.8-0.8C98.9,20.3,99.1,19.9,99.3,19.4 M79.5,7.3
		c0.2,0,0.3,0.1,0.3,0.3c0,0.4-0.2,0.8-1.1,1.5c-0.1-0.2-0.1-0.7-0.1-0.8C78.6,7.7,78.9,7.3,79.5,7.3 M76.5,14
		c0.4,0.8,0.6,1.8,0.6,3c0,1.5-1.2,3.4-2.7,3.4c-0.9,0-1.5-1-1.6-2.5C73.9,16.7,75.5,15.1,76.5,14 M65.3,7.7c0-0.1,0.1-0.2,0.2-0.3
		l0,0c0,0,0,0,0,0c0,0,0.1,0,0.1-0.1c0.1,0,0.2-0.1,0.4-0.1c0.1,0,0.1,0,0.1,0c0,0,0.1,0,0.1,0.1c0.1,0.1,0.1,0.1,0.1,0.3
		c0,0.2,0,0.5-0.3,0.8c-0.2,0.2-0.4,0.4-0.8,0.6c0-0.2-0.1-0.6-0.1-0.8C65.2,8.1,65.2,7.9,65.3,7.7 M55.9,10.4
		c0.4,0,0.5,0.3,0.5,0.8c0,0.3-0.1,0.8-0.3,1c-0.7,0-1.1-0.3-1.1-1C55.1,10.6,55.4,10.4,55.9,10.4 M48.2,19.4l2.9-6.5
		c0.3-0.6,0.6-1.2,1.5-1.3c0,0.4,0.1,0.8,0.3,1.2c0.1,0.2,0.2,0.3,0.3,0.5c-0.1,0.1-0.1,0.3-0.2,0.4c-0.3,0.6-0.5,1.1-0.8,1.7
		c-0.3,0.7-0.6,1.3-0.9,2c-0.2,0.5-0.5,1.1-0.7,1.7c-0.1,0.2-0.2,0.5-0.3,0.7c-0.4,0.8-0.7,1.6-1.7,1.6c-0.5,0-0.8-0.3-0.8-0.8
		C47.9,20.3,48,19.9,48.2,19.4"/>
	<path class="st0" d="M120.4,53.4l32.3-38.1l-5.8-4.9l-31,36.6V32.6h-7.6v20.7H95.1V40.2v-7.6h-7.6h-7.4h-7.6v7.6v29.3V77v34.2
		L55.5,77h9.1V75v-5.5V40.2v-7.6H57H38.3h-7.6h-6.5h-7.6H0v7.6h16.6V120h7.6V77h14v-0.9v-6.6V40.2H57v29.3h-5.9v0h-7.6v31.8
		l-26.9,34.6v53.3h7.6v-50.7l19.4-24.9v75.6h7.6v-34.9L70,189v0.3h10.5H88v-7.6V131l29.2,58.3h7.6v-41.3h9v157h7.6V107.1h-0.7h-6.9
		h-9h-7h-0.6v65.3l-6.7-13.5V97h30.8v-7.6h-30.8V77h30.8v-0.2v-7.3v-8.6v-7.6h-7.6H120.4z M30.7,69.5h-6.5V40.2h6.5V69.5z
		 M133.7,140.4h-9v-25.7h9V140.4z M80.1,40.2h7.4v29.3h-7.4V40.2z M87.6,120h-7.4V77h7.4V120z M51.2,120V85.3L68.5,120H51.2z
		 M51.2,127.6h14.3v16.7H51.2V127.6z M74.6,181.7l-16.2-29.9h7.1H73v-7.6v-16.7h7.5v54.1H74.6z M133.7,69.5h-23.3h-4.7h-2.9v74.3
		l-7.8-15.6V77v-7.6v-8.6h38.6V69.5z"/>
	<path class="st0" d="M138,41.4c-1.8,0-3.3,1.2-3.3,3.3c0,1.8,1.1,3.2,3.3,3.2c1.9,0,3.3-1.3,3.3-3.3
		C141.3,42.6,140.1,41.4,138,41.4 M138,47.6c-1.8,0-2.9-1.1-2.9-2.8c0-1.8,1.3-2.9,2.9-2.9c1.7,0,2.9,0.9,2.9,2.8
		C140.9,46.4,139.7,47.6,138,47.6"/>
	<path class="st0" d="M139.3,43.9c0-0.5-0.2-1-1.2-1h-1v3.6h0.4v-1.5h0.8l0.9,1.5h0.4l-0.9-1.6C139.1,44.7,139.3,44.3,139.3,43.9
		 M138,44.6h-0.5v-1.3h0.5c0.6,0,0.9,0.2,0.9,0.6C138.8,44.4,138.5,44.6,138,44.6"/>
</g>
</svg>
