<?xml version="1.0" standalone="no"?>
<!DOCTYPE svg PUBLIC "-//W3C//DTD SVG 20010904//EN"
 "http://www.w3.org/TR/2001/REC-SVG-20010904/DTD/svg10.dtd">
<svg version="1.0" xmlns="http://www.w3.org/2000/svg"
 width="1000.000000pt" height="1000.000000pt" viewBox="0 0 1000.000000 1000.000000"
 preserveAspectRatio="xMidYMid meet">

<g transform="translate(0.000000,1000.000000) scale(0.100000,-0.100000)"
fill="#000000" stroke="none">
<path d="M3568 9245 c-104 -29 -180 -94 -227 -195 -25 -52 -26 -64 -29 -252
l-3 -197 -139 -3 c-153 -3 -171 -10 -217 -78 -23 -32 -23 -37 -23 -355 0 -318
0 -323 23 -355 12 -18 35 -43 50 -54 l28 -21 1401 -3 1401 -2 44 21 c29 14 52
35 68 63 l25 43 0 307 c0 344 -2 353 -68 404 -34 26 -41 27 -174 30 l-138 4 0
167 c0 243 -30 331 -141 416 -98 74 -36 70 -984 72 -677 1 -860 -1 -897 -12z
m1744 -263 l33 -32 3 -175 3 -175 -900 0 -901 0 0 165 c0 129 3 173 15 195 32
62 -10 60 892 57 l823 -2 32 -33z"/>
<path d="M8168 8146 c-64 -23 -85 -43 -162 -154 l-74 -107 59 -12 c109 -23
205 -91 259 -186 l28 -48 76 113 76 113 0 80 c0 61 -5 87 -19 111 -27 44 -79
81 -131 93 -57 13 -67 13 -112 -3z"/>
<path d="M1814 8061 c-94 -23 -186 -99 -227 -189 l-22 -47 0 -3420 0 -3420 26
-56 c33 -69 89 -127 155 -160 l49 -24 1927 -3 c2250 -3 1974 -20 2140 135 474
443 1400 1330 1420 1361 56 85 53 -17 56 1632 1 839 1 1648 0 1798 l-3 274
-155 -226 c-85 -124 -161 -225 -167 -226 -10 0 -13 -302 -13 -1475 0 -1564 1
-1517 -45 -1555 -15 -13 -107 -16 -645 -20 l-627 -5 -37 -29 c-68 -51 -66 -33
-66 -671 0 -405 -3 -583 -11 -598 -6 -12 -21 -30 -33 -39 -20 -17 -129 -18
-1797 -18 l-1776 0 -26 24 c-14 13 -29 35 -32 48 -3 12 -4 1484 -3 3270 l3
3248 28 27 27 28 371 5 371 5 24 28 c22 26 24 37 24 127 0 54 -4 110 -10 124
-20 55 -32 56 -482 55 -227 -1 -427 -4 -444 -8z"/>
<path d="M6181 8045 l-31 -27 0 -119 c0 -114 1 -121 25 -144 l24 -25 356 0
c304 0 360 -2 386 -16 57 -29 59 -46 59 -455 l0 -371 170 246 170 246 0 178
c0 183 -10 274 -37 327 -33 65 -84 114 -151 147 l-67 33 -436 3 -436 3 -32
-26z"/>
<path d="M7857 7799 c-57 -13 -108 -43 -148 -86 -35 -37 -1195 -1709 -1201
-1731 -3 -10 463 -342 480 -342 10 0 1176 1682 1206 1739 27 51 33 164 12 229
-45 134 -210 225 -349 191z"/>
<path d="M8214 7218 c-38 -51 -39 -53 -40 -148 -2 -154 31 -97 -452 -795 -168
-242 -315 -461 -328 -486 -33 -65 -33 -164 0 -235 33 -70 72 -83 123 -40 27
24 27 24 16 89 -12 71 -4 136 22 187 9 17 209 309 446 648 l430 617 -3 54 -3
55 -75 53 c-41 29 -80 53 -87 53 -6 0 -28 -23 -49 -52z"/>
<path d="M2360 6700 l0 -80 1045 0 1045 0 0 80 0 80 -1045 0 -1045 0 0 -80z"/>
<path d="M2364 5991 c-2 -2 -4 -40 -4 -83 l0 -78 1270 0 1271 0 -3 80 -3 80
-1263 3 c-695 1 -1266 0 -1268 -2z"/>
<path d="M5930 5138 c-293 -423 -534 -778 -536 -787 -3 -11 60 -60 222 -171
125 -85 233 -155 240 -155 17 0 1087 1546 1077 1556 -5 3 -84 59 -178 124 -93
65 -197 137 -231 161 l-61 43 -533 -771z"/>
<path d="M2360 5045 l0 -85 1130 0 1130 0 0 85 0 85 -1130 0 -1130 0 0 -85z"/>
<path d="M2362 4218 l3 -83 838 -3 837 -2 0 85 0 85 -840 0 -841 0 3 -82z"/>
<path d="M5262 4172 c-88 -130 -106 -176 -99 -258 11 -149 114 -256 261 -271
69 -7 152 17 203 59 39 32 183 226 183 247 0 9 -433 315 -461 326 -9 3 -39
-33 -87 -103z"/>
<path d="M5002 3758 c-19 -23 -174 -571 -168 -594 6 -22 91 -84 116 -84 14 0
455 327 484 359 36 40 20 58 -179 197 -188 131 -229 151 -253 122z"/>
<path d="M4797 3083 c-3 -5 -12 -34 -21 -67 -23 -79 -11 -89 52 -42 78 57 79
60 35 90 -38 26 -58 32 -66 19z"/>
</g>
</svg>
