<?xml version="1.0" encoding="utf-8"?>
<!-- Generator: Adobe Illustrator 28.0.0, SVG Export Plug-In . SVG Version: 6.00 Build 0)  -->
<svg version="1.1" id="Vrstva_1" xmlns="http://www.w3.org/2000/svg" xmlns:xlink="http://www.w3.org/1999/xlink" x="0px" y="0px"
	 viewBox="0 0 1000 1000" style="enable-background:new 0 0 1000 1000;" xml:space="preserve">
<g transform="translate(0.000000,1000.000000) scale(0.100000,-0.100000)">
	<path d="M4225,8589c-461-58-847-376-996-820c-100-299-76-643,63-924c88-176,240-350,404-462l91-62l-28-193c-41-280-39-309,30-355
		c66-45,74-42,475,188c259,148,392,219,443,234l73,23l68-57c121-101,261-176,427-227c72-22,165-70,458-237c399-227,409-231,479-191
		c18,11,42,37,52,58c19,39,19,39-14,268c-18,126-31,230-29,231c149,95,241,174,326,281c300,378,355,878,141,1301
		c-165,327-463,560-821,641c-159,37-393,33-553-9l-89-23l-74,62C4895,8531,4557,8630,4225,8589z M4544,8295c371-65,658-328,758-696
		c33-120,33-346,0-468c-72-264-247-483-482-601c-75-37-225-90-258-90c-10,0-132-66-271-146s-255-143-257-141c-3,3,2,59,10,125
		c22,180,18,189-133,278c-149,87-285,232-361,384c-78,155-105,288-97,472C3477,7976,3991,8391,4544,8295z M5765,8029
		c130-22,277-84,390-164c67-48,176-158,224-229c53-77,110-205,137-311c23-92,25-113,21-250c-6-174-23-249-92-390
		c-82-168-211-305-376-400c-80-46-115-80-126-124c-3-14,1-81,11-150c9-68,15-125,14-126c-2-2-115,60-253,137
		c-207,117-265,145-340,165c-93,24-248,95-298,136l-29,23l74,56c199,154,348,362,422,591c102,316,68,680-90,963c-20,36-34,68-31,71
		c10,9,158,20,222,16C5678,8041,5732,8035,5765,8029z"/>
	<path d="M2442,5609c-315-53-577-298-652-612c-40-165-20-368,50-523c95-210,302-385,527-446c103-28,298-30,392-5
		c164,44,265,102,382,217c100,99,154,185,201,320c31,91,33,101,33,250s-2,159-33,250c-77,223-226,388-438,486
		C2768,5609,2589,5633,2442,5609z M2752,5317c372-135,481-607,204-882c-76-76-152-120-252-145c-130-33-239-23-361,36
		c-344,164-410,625-126,884C2360,5341,2571,5383,2752,5317z"/>
	<path d="M7292,5609c-316-56-575-296-652-603c-28-109-27-284,0-392c59-231,213-421,428-529c448-224,993,22,1134,512
		c32,112,32,314,0,426c-81,283-301,498-582,571C7542,5615,7366,5623,7292,5609z M7554,5330c105-27,169-63,247-141
		c103-102,159-236,159-379c0-253-179-473-427-525c-82-18-130-19-209-4c-186,34-358,187-415,368c-14,47-20,94-20,161
		c0,115,23,200,79,286C7100,5297,7327,5388,7554,5330z"/>
	<path d="M1910,3859c-261-31-503-160-650-345c-64-81-118-183-146-279c-16-54-18-126-21-725c-4-734-3-761,53-868c19-36,34-66,34-68
		s-92-4-204-4c-191,0-205-1-230-21c-77-61-72-172,11-226c26-17,196-18,4238-18c4009,0,4212,1,4242,18c46,25,65,59,65,116
		c0,59-13,86-55,111c-29,18-52,20-229,20c-109,0-198,3-198,6s17,40,38,82l37,76l3,705c3,791,4,782-67,927c-130,268-417,456-754,493
		c-123,14-1145,14-1288,1c-187-18-345-73-490-170c-79-54-182-156-232-233c-42-62-92-178-103-233l-6-34h-297c-276,0-298-1-328-20
		c-38-23-63-67-63-110c0-16,81-354,180-750s180-724,180-730c0-7-212-10-630-10c-576,0-630,1-630,16c0,9,81,337,180,729
		s180,727,180,744c0,44-25,88-63,111c-30,19-52,20-328,20h-297l-11,48c-19,74-86,204-141,272c-132,166-315,276-549,332
		c-82,20-118,21-721,24C2271,3867,1951,3864,1910,3859z M3325,3576c157-46,317-167,392-296c59-101,119-90-503-90
		c-515,0-551-1-579-18c-16-10-36-30-44-45c-7-14-68-247-135-519l-121-493l-148-3l-147-3v198c-1,233-6,266-54,311c-30,27-43,32-86,32
		s-55-5-88-34l-37-34l-3-319c-4-353-2-360,61-399c31-18,64-19,779-24l748-5l-31-53c-61-108-175-184-300-202c-79-12-1217-12-1315-1
		c-150,18-264,76-319,165l-30,49v671v671l24,65c52,141,148,244,296,315c87,42,187,71,270,78c22,2,326,3,675,2
		C3207,3594,3270,3592,3325,3576z M8060,3589c307-38,538-233,570-479c5-41,10-341,10-665c0-634-2-662-51-723c-35-44-123-99-198-124
		c-65-22-78-22-701-26c-686-4-753,0-848,45c-68,32-149,110-180,173l-22,45l748,5c832,6,778,1,822,73c19,30,20,52,20,335
		c0,335-2,345-63,382c-67,41-158,16-190-53c-14-29-17-70-17-251v-217l-147,3l-148,3l-125,504l-126,503l-37,34l-37,34h-550
		c-302,0-550,3-550,6c0,21,71,133,117,184c96,106,222,177,363,205C6804,3602,7932,3605,8060,3589z M4415,2893c-3-16-79-318-168-673
		l-162-645l-282-3c-263-2-308,2-273,23c6,4,26,38,46,77c66,131,93,302,59,369c-9,16-30,39-48,49c-31,19-53,20-498,20
		c-256,0-468,2-471,5s40,186,95,405l99,400h805h805L4415,2893z M7283,2528c54-216,97-399,97-405c0-10-102-13-476-13h-476l-41-40
		l-40-40l6-98c6-113,31-202,82-286c19-32,35-62,35-67s-125-9-279-9h-279l-166,665c-91,366-166,669-166,675c0,7,271,10,803,10h802
		L7283,2528z"/>
</g>
<ellipse cx="398.7" cy="262.3" rx="18.2" ry="18.6"/>
<ellipse cx="439.9" cy="261.3" rx="18.2" ry="18.6"/>
<ellipse cx="480.9" cy="262" rx="18.2" ry="18.6"/>
</svg>
