<?xml version="1.0" standalone="no"?>
<!DOCTYPE svg PUBLIC "-//W3C//DTD SVG 20010904//EN"
 "http://www.w3.org/TR/2001/REC-SVG-20010904/DTD/svg10.dtd">
<svg version="1.0" xmlns="http://www.w3.org/2000/svg"
 width="1000.000000pt" height="1000.000000pt" viewBox="0 0 1000.000000 1000.000000"
 preserveAspectRatio="xMidYMid meet">

<g transform="translate(0.000000,1000.000000) scale(0.100000,-0.100000)"
fill="#000000" stroke="none">
<path d="M1088 9200 c-77 -27 -113 -50 -176 -112 -60 -59 -105 -143 -123 -226
-13 -64 -7 -270 10 -315 8 -20 7 -42 -4 -84 -13 -49 -15 -237 -14 -1333 0
-1191 1 -1280 18 -1344 17 -63 17 -72 2 -125 -13 -49 -15 -224 -18 -1431 -3
-1503 -5 -1422 54 -1532 37 -69 130 -153 210 -191 l68 -32 1417 -5 c779 -3
1419 -8 1422 -11 4 -4 -66 -292 -154 -640 -89 -349 -164 -655 -167 -681 l-6
-48 -311 -1 c-214 0 -322 -4 -346 -12 -51 -18 -80 -67 -80 -136 0 -68 14 -98
60 -129 l34 -23 371 6 c203 3 397 4 430 3 33 -1 779 -2 1657 -2 l1598 -1 32
32 c27 27 32 41 36 90 5 75 -15 125 -60 150 -30 16 -66 18 -354 21 l-321 3 -6
47 c-3 26 -78 332 -167 681 -88 349 -158 637 -154 640 3 3 634 7 1402 7 1049
1 1408 5 1442 14 130 34 259 160 304 296 14 43 16 107 17 470 1 294 -2 428
-11 449 -8 22 -8 41 2 80 19 76 19 4631 0 4694 -11 36 -11 52 0 95 20 76 16
277 -6 350 -43 143 -158 254 -301 292 -41 11 -724 14 -3900 14 -3808 -1 -3851
-1 -3907 -20z m7762 -295 c46 -24 64 -68 64 -160 l1 -80 -3917 -2 -3918 -1 0
76 c0 88 18 129 72 162 33 20 59 20 3851 20 3393 0 3821 -2 3847 -15z m-6922
-542 l112 -6 0 -1249 0 -1248 -477 2 -478 3 -3 1247 -2 1247 132 4 c285 6 608
7 716 0z m6854 -3 l138 0 0 -644 c0 -354 -3 -664 -6 -690 l-7 -46 -478 0 -479
0 0 690 0 689 138 4 c75 2 231 3 346 1 115 -2 271 -4 348 -4z m-1132 -2235 l0
-2235 -2652 2 -2653 3 -3 2233 -2 2232 2655 0 2655 0 0 -2235z m1264 509 c8
-60 8 -1262 0 -1303 l-6 -31 -479 0 -478 0 -3 343 c-2 188 -2 498 0 690 l4
347 477 0 478 0 7 -46z m-6874 -1909 l0 -835 -477 2 -478 3 -3 780 c-2 429 0
804 3 833 l6 52 475 0 474 0 0 -835z m6875 213 c4 -35 5 -283 3 -553 l-3 -490
-483 -3 -482 -2 0 548 c0 302 3 552 7 555 3 4 219 7 479 7 l472 0 7 -62z m-3
-1715 l-2 -366 -26 -34 c-13 -18 -35 -38 -47 -45 -17 -10 -510 -13 -2297 -13
-1894 0 -2288 -2 -2355 -14 -72 -12 -91 -12 -170 3 -81 14 -232 16 -1461 16
l-1371 0 -34 23 c-68 45 -69 51 -69 445 l0 352 3918 0 3917 0 -3 -367z m-3257
-759 l81 -7 21 -96 c11 -53 87 -358 169 -679 81 -320 145 -584 142 -587 -9 -9
-2133 -6 -2136 3 -2 8 204 842 278 1119 16 62 34 142 41 177 10 62 12 65 42
69 54 7 1277 7 1362 1z"/>
<path d="M2840 8049 c-51 -15 -77 -45 -89 -101 -15 -69 -15 -3577 0 -3646 15
-73 44 -95 128 -100 49 -3 77 0 99 12 67 34 62 -113 62 1913 0 1819 0 1838
-20 1871 -30 49 -110 71 -180 51z"/>
<path d="M4875 8041 c-27 -10 -329 -169 -670 -354 -666 -359 -688 -374 -740
-478 -15 -30 -43 -71 -62 -93 -20 -21 -47 -64 -62 -95 l-26 -56 -3 -855 c-2
-828 -2 -857 17 -920 24 -79 67 -146 127 -199 46 -40 1247 -699 1325 -726 23
-8 51 -15 63 -15 12 0 40 -9 61 -21 48 -25 119 -27 166 -6 19 8 63 20 99 27
79 14 66 8 425 206 160 88 427 234 594 325 338 182 392 223 448 334 55 108 55
103 51 990 l-3 820 -23 59 c-33 89 -108 211 -171 278 -84 92 -155 140 -348
242 -98 51 -221 118 -274 148 -89 52 -463 250 -673 357 -83 42 -95 45 -180 48
-71 3 -102 -1 -141 -16z m452 -437 c164 -86 363 -194 443 -239 80 -45 195
-108 255 -138 61 -31 130 -69 154 -85 l43 -30 -108 -64 c-60 -36 -176 -101
-259 -145 -82 -44 -307 -167 -499 -273 l-350 -192 -34 17 c-28 13 -491 265
-1149 627 -24 13 -43 26 -43 29 0 4 222 126 493 272 270 146 537 291 592 321
62 34 112 56 132 56 22 0 122 -47 330 -156z m-1054 -1110 l577 -316 0 -810 c0
-445 -3 -807 -7 -805 -5 3 -267 145 -583 317 -316 172 -584 318 -594 326 -10
7 -27 26 -37 41 -18 27 -19 66 -19 821 l0 793 43 -25 c23 -15 302 -168 620
-342z m2117 -421 c0 -786 0 -788 -21 -823 -28 -46 -30 -47 -204 -141 -397
-216 -924 -505 -967 -530 l-48 -28 0 812 0 813 408 223 c224 123 463 254 532
292 69 38 161 90 205 118 44 27 83 49 88 50 4 1 7 -353 7 -786z"/>
</g>
</svg>
