<?xml version="1.0" standalone="no"?>
<!DOCTYPE svg PUBLIC "-//W3C//DTD SVG 20010904//EN"
 "http://www.w3.org/TR/2001/REC-SVG-20010904/DTD/svg10.dtd">
<svg version="1.0" xmlns="http://www.w3.org/2000/svg"
 width="1000.000000pt" height="1000.000000pt" viewBox="0 0 1000.000000 1000.000000"
 preserveAspectRatio="xMidYMid meet">

<g transform="translate(0.000000,1000.000000) scale(0.100000,-0.100000)"
fill="#000000" stroke="none">
<path d="M8472 9186 c-259 -11 -264 -11 -283 -35 -10 -13 -19 -31 -19 -40 0
-9 23 -56 50 -105 28 -49 49 -93 48 -98 -2 -5 -237 -131 -523 -279 -477 -247
-523 -269 -558 -264 -54 8 -74 23 -113 82 -64 100 -171 148 -278 126 -39 -8
-267 -132 -866 -468 -448 -252 -823 -463 -833 -469 -21 -13 -31 -47 -23 -79 6
-27 48 -49 73 -40 10 3 387 213 838 466 880 494 864 486 928 445 14 -10 44
-44 65 -76 57 -83 121 -117 222 -117 l75 0 525 273 c289 150 529 273 535 273
5 1 32 -39 60 -89 54 -99 80 -121 122 -106 31 11 373 513 373 548 0 12 -10 32
-23 44 -27 25 2 25 -395 8z"/>
<path d="M8636 8595 c-8 -9 -18 -30 -21 -48 -3 -18 -4 -762 -3 -1653 3 -1579
4 -1622 22 -1643 18 -20 28 -21 273 -21 240 0 254 1 273 20 20 20 20 33 20
1668 0 1475 -2 1650 -16 1670 -15 22 -18 22 -274 22 -219 0 -261 -2 -274 -15z
m434 -1675 l0 -1560 -160 0 -160 0 0 1560 0 1560 160 0 160 0 0 -1560z"/>
<path d="M7847 8182 c-16 -17 -17 -133 -17 -1469 0 -1392 1 -1451 18 -1466 16
-15 50 -17 274 -17 246 0 256 1 274 21 18 21 19 59 19 1464 0 1405 -1 1443
-19 1464 -18 20 -28 21 -276 21 -236 0 -258 -1 -273 -18z m433 -1467 l0 -1355
-160 0 -160 0 0 1355 0 1355 160 0 160 0 0 -1355z"/>
<path d="M1525 8048 c-34 -35 -176 -182 -316 -328 -139 -146 -288 -302 -331
-346 l-78 -82 0 -2556 0 -2557 25 -24 24 -25 1909 0 1909 0 27 21 c24 19 26
26 26 94 l0 73 58 -58 c49 -49 67 -60 114 -70 141 -32 257 65 258 214 0 73 -2
77 -249 470 l-181 290 0 2451 0 2452 -23 21 -23 22 -1543 0 -1543 0 -63 -62z
m3064 -1465 c0 -1078 -3 -1384 -12 -1369 -66 106 -119 176 -178 240 -253 271
-630 409 -998 367 -168 -20 -311 -68 -471 -159 l-65 -37 -713 -5 -714 -5 -19
-24 c-27 -33 -24 -66 7 -90 26 -21 35 -21 645 -21 l619 0 -61 -72 c-69 -83
-133 -186 -180 -294 l-33 -74 -492 0 -493 0 -15 -22 c-23 -33 -19 -64 10 -87
26 -21 36 -21 491 -21 l465 0 -6 -24 c-19 -76 -28 -193 -22 -298 l6 -118 -460
0 c-447 0 -461 -1 -480 -20 -23 -23 -26 -58 -6 -86 14 -18 34 -19 496 -24
l481 -5 25 -73 c31 -93 90 -210 148 -295 l46 -67 -585 0 c-572 0 -585 0 -605
-20 -26 -26 -26 -64 0 -90 20 -20 33 -20 666 -20 l646 0 86 -65 c314 -236 711
-306 1071 -188 41 13 77 20 81 16 4 -4 145 -229 314 -500 l307 -492 -3 -138
-3 -138 -1825 0 -1825 0 -3 2463 -2 2462 52 0 c29 0 197 -7 372 -16 l319 -17
24 28 c21 24 23 34 18 84 -2 31 -9 178 -15 326 -6 149 -13 294 -15 323 l-5 52
1455 0 1455 0 -1 -1387z m-3020 988 c6 -146 8 -267 6 -270 -6 -5 -555 20 -555
26 0 3 118 127 263 277 223 232 263 269 269 252 3 -12 11 -140 17 -285z m2174
-1898 c379 -73 692 -361 802 -739 109 -374 -5 -786 -289 -1052 -361 -337 -905
-379 -1318 -101 -81 54 -213 186 -267 266 -237 352 -249 777 -32 1148 56 96
216 262 311 324 242 157 511 209 793 154z m847 -1940 c0 -297 -2 -345 -14
-333 -8 8 -64 95 -125 193 l-111 178 76 86 c41 48 94 117 117 155 23 37 45 68
50 68 4 0 7 -156 7 -347z m-221 -257 c76 -122 127 -214 122 -219 -11 -11 -134
-87 -137 -84 -1 1 -61 97 -133 212 -114 181 -130 211 -116 220 9 6 42 27 73
47 31 20 58 36 58 35 1 -1 61 -96 133 -211z"/>
<path d="M3034 7442 c-13 -9 -34 -46 -34 -62 0 -6 11 -22 25 -35 l24 -25 654
0 654 0 21 23 c26 27 28 54 6 85 l-15 22 -662 0 c-364 0 -667 -4 -673 -8z"/>
<path d="M1426 6739 c-31 -24 -34 -57 -7 -90 l19 -24 1362 0 1362 0 19 24 c25
31 24 63 -4 89 l-23 22 -1351 0 -1350 0 -27 -21z"/>
<path d="M1426 6169 c-31 -24 -34 -57 -7 -90 l19 -24 1355 -3 1354 -2 27 21
c35 28 35 70 0 98 l-27 21 -1347 0 -1347 0 -27 -21z"/>
<path d="M3373 5546 c-360 -69 -641 -336 -730 -693 -23 -94 -23 -322 0 -416
83 -334 334 -588 668 -679 108 -29 325 -32 432 -5 429 107 723 494 704 927 -3
69 -14 147 -26 195 -29 110 -109 266 -181 353 -118 141 -301 258 -475 303
-103 26 -293 34 -392 15z m361 -146 c266 -68 485 -286 558 -559 27 -100 29
-276 5 -376 -24 -95 -95 -236 -157 -312 -102 -126 -270 -232 -425 -269 -147
-36 -327 -21 -477 40 -228 92 -406 300 -464 543 -24 98 -22 276 4 374 111 418
536 667 956 559z"/>
<path d="M3923 4814 c-59 -35 -90 -92 -99 -182 -9 -101 -35 -146 -113 -202
-106 -74 -136 -165 -88 -263 53 -108 155 -143 265 -92 114 53 227 167 278 282
59 131 73 297 34 379 -48 99 -181 136 -277 78z"/>
<path d="M6282 7694 l-22 -15 0 -1208 c0 -1157 1 -1209 18 -1224 16 -15 50
-17 274 -17 234 0 256 1 271 18 16 17 17 116 17 1220 l0 1201 -22 21 c-21 19
-34 20 -268 20 -206 0 -249 -3 -268 -16z m428 -1229 l0 -1105 -160 0 -160 0 0
1105 0 1105 160 0 160 0 0 -1105z"/>
<path d="M5490 7040 c-20 -20 -20 -33 -20 -893 0 -774 2 -875 16 -895 15 -22
18 -22 274 -22 l259 0 20 26 c21 27 21 32 21 889 0 857 0 862 -21 889 l-20 26
-255 0 c-241 0 -255 -1 -274 -20z m430 -895 l0 -785 -160 0 -160 0 0 778 c0
428 3 782 7 785 3 4 75 7 160 7 l153 0 0 -785z"/>
<path d="M7061 6624 c-21 -26 -21 -34 -21 -690 0 -651 0 -664 20 -684 19 -19
33 -20 275 -20 242 0 256 1 275 20 20 20 20 33 20 684 0 656 0 664 -21 690
l-20 26 -254 0 -254 0 -20 -26z m437 -686 l2 -578 -160 0 -160 0 0 580 0 581
158 -3 157 -3 3 -577z"/>
<path d="M8337 5132 c-14 -15 -17 -41 -17 -139 l0 -121 -43 -25 c-53 -31 -70
-62 -146 -263 l-61 -162 0 -1599 c0 -1511 1 -1601 18 -1616 9 -8 33 -17 52
-19 l35 -3 5 -126 c4 -112 8 -129 29 -161 100 -145 314 -115 370 51 6 19 11
81 11 137 l0 104 73 0 c115 1 194 47 241 142 l26 52 0 508 c0 495 -1 509 -20
528 -26 26 -51 25 -84 -1 l-26 -20 0 -490 c0 -415 -2 -494 -15 -519 -16 -31
-51 -60 -72 -60 -11 0 -13 296 -13 1535 l0 1536 -65 174 c-35 96 -71 188 -80
204 -16 31 -73 81 -93 81 -9 0 -12 37 -12 125 0 112 -2 127 -20 145 -25 25
-72 26 -93 2z m97 -414 c18 -28 98 -240 92 -245 -2 -2 -68 -2 -148 -1 l-145 3
42 110 c58 155 58 155 105 155 30 0 43 -5 54 -22z m126 -1183 l0 -535 -180 0
-180 0 0 535 0 535 180 0 180 0 0 -535z m0 -1315 l0 -650 -180 0 -180 0 0 650
0 650 180 0 180 0 0 -650z m-105 -1136 c0 -118 -13 -144 -72 -144 -61 0 -73
25 -73 145 l0 106 73 -3 72 -3 0 -101z"/>
<path d="M5620 4794 c-107 -29 -195 -101 -246 -202 l-29 -57 -3 -1675 c-2
-1203 0 -1690 8 -1727 15 -69 78 -164 137 -207 26 -20 75 -45 109 -56 59 -20
76 -20 960 -18 l899 3 57 29 c75 37 149 111 185 183 l28 58 0 1705 0 1705 -28
55 c-54 104 -149 181 -256 206 -87 21 -1743 19 -1821 -2z m1836 -143 c22 -10
57 -35 77 -56 72 -74 67 53 67 -1764 0 -1096 -4 -1648 -10 -1673 -16 -56 -69
-119 -125 -147 l-49 -26 -881 0 -881 0 -49 26 c-56 28 -109 91 -125 147 -6 25
-10 577 -10 1673 0 1782 -3 1677 55 1754 15 19 50 45 78 60 l51 25 880 0 c836
0 883 -1 922 -19z"/>
<path d="M5696 4379 l-26 -20 0 -275 c0 -261 1 -275 20 -294 20 -20 33 -20
845 -20 812 0 825 0 845 20 19 19 20 33 20 294 l0 275 -26 20 c-27 21 -32 21
-839 21 -807 0 -812 0 -839 -21z m1574 -299 l0 -180 -735 0 -735 0 0 180 0
180 735 0 735 0 0 -180z"/>
<path d="M5848 3486 c-128 -35 -204 -172 -167 -303 17 -62 96 -143 155 -161
137 -40 271 32 310 166 52 179 -117 349 -298 298z m121 -140 c48 -26 68 -108
35 -154 -17 -25 -64 -52 -89 -52 -36 0 -84 32 -100 67 -46 96 57 188 154 139z"/>
<path d="M6467 3486 c-105 -29 -172 -122 -172 -236 2 -213 253 -319 408 -172
118 111 92 307 -49 384 -61 33 -125 41 -187 24z m136 -146 c81 -64 35 -195
-68 -195 -100 0 -146 126 -70 193 34 29 102 30 138 2z"/>
<path d="M7103 3490 c-135 -32 -217 -172 -178 -305 38 -131 174 -203 307 -163
57 17 121 78 148 140 58 136 -26 296 -171 327 -55 12 -60 12 -106 1z m120
-150 c30 -24 51 -80 42 -112 -20 -66 -97 -103 -153 -74 -43 22 -62 54 -62 102
0 87 105 137 173 84z"/>
<path d="M5830 2867 c-49 -16 -133 -102 -148 -153 -41 -140 41 -284 179 -313
178 -38 336 128 285 300 -39 136 -179 209 -316 166z m130 -132 c41 -21 60 -53
60 -100 -1 -124 -175 -146 -211 -26 -15 49 8 102 54 125 40 20 61 20 97 1z"/>
<path d="M6451 2866 c-48 -17 -108 -71 -133 -119 -34 -65 -32 -167 5 -230 110
-186 381 -152 447 57 24 75 -5 180 -67 238 -64 61 -171 84 -252 54z m152 -143
c81 -72 37 -193 -70 -193 -117 0 -147 163 -38 211 28 12 84 3 108 -18z"/>
<path d="M7054 2856 c-184 -85 -186 -343 -4 -436 147 -75 327 23 347 189 9 79
-12 137 -71 196 -79 78 -175 96 -272 51z m177 -142 c34 -33 43 -66 29 -110
-38 -114 -209 -90 -210 29 0 49 13 73 53 98 41 26 90 19 128 -17z"/>
<path d="M5860 2259 c-130 -25 -217 -172 -180 -304 16 -56 81 -132 135 -156
89 -41 215 -12 282 64 41 47 67 133 58 190 -24 143 -153 233 -295 206z m109
-143 c55 -29 68 -114 25 -165 -74 -88 -218 -11 -185 100 21 70 93 99 160 65z"/>
<path d="M6489 2261 c-156 -30 -243 -207 -170 -349 72 -139 253 -175 371 -74
131 112 112 315 -37 394 -54 29 -111 39 -164 29z m112 -151 c31 -22 51 -76 42
-112 -9 -35 -53 -77 -89 -84 -105 -20 -172 113 -93 187 39 36 96 39 140 9z"/>
<path d="M7108 2260 c-64 -12 -128 -59 -161 -119 -40 -70 -43 -162 -9 -227 58
-113 205 -166 317 -115 51 23 118 98 133 149 53 177 -99 347 -280 312z m115
-151 c15 -11 32 -37 38 -58 23 -76 -46 -152 -124 -137 -98 18 -120 156 -32
204 33 18 90 14 118 -9z"/>
<path d="M5850 1641 c-150 -49 -220 -200 -156 -337 47 -100 159 -158 265 -136
72 15 126 55 161 116 37 63 45 114 30 176 -25 105 -112 179 -217 186 -32 2
-69 0 -83 -5z m104 -135 c45 -19 66 -52 66 -104 0 -121 -172 -144 -210 -28
-22 69 23 133 103 145 4 0 23 -5 41 -13z"/>
<path d="M6470 1641 c-114 -37 -174 -119 -175 -237 0 -61 4 -77 30 -119 86
-139 268 -163 379 -51 119 118 90 312 -58 388 -43 22 -136 32 -176 19z m128
-147 c37 -24 55 -78 42 -120 -16 -48 -53 -74 -107 -74 -117 0 -147 158 -40
206 35 15 69 11 105 -12z"/>
<path d="M7076 1635 c-138 -49 -201 -210 -133 -341 90 -176 339 -173 430 5 97
192 -94 409 -297 336z m111 -126 c68 -26 98 -90 69 -147 -22 -43 -54 -62 -104
-62 -115 0 -144 159 -38 206 38 16 38 16 73 3z"/>
</g>
</svg>
